<?xml version="1.0" encoding="UTF-8" standalone="no"?>
<!-- Created with Inkscape (http://www.inkscape.org/) -->

<svg
   version="1.1"
   id="svg1"
   width="1057"
   height="575.33301"
   viewBox="0 0 1057 575.333"
   sodipodi:docname="KD_Fit.svg"
   inkscape:version="1.4 (86a8ad7, 2024-10-11)"
   xmlns:inkscape="http://www.inkscape.org/namespaces/inkscape"
   xmlns:sodipodi="http://sodipodi.sourceforge.net/DTD/sodipodi-0.dtd"
   xmlns="http://www.w3.org/2000/svg"
   xmlns:svg="http://www.w3.org/2000/svg">
  <defs
     id="defs1" />
  <sodipodi:namedview
     id="namedview1"
     pagecolor="#ffffff"
     bordercolor="#000000"
     borderopacity="0.25"
     inkscape:showpageshadow="2"
     inkscape:pageopacity="0.0"
     inkscape:pagecheckerboard="0"
     inkscape:deskcolor="#d1d1d1"
     inkscape:zoom="0.49078226"
     inkscape:cx="417.70051"
     inkscape:cy="322.95381"
     inkscape:window-width="1920"
     inkscape:window-height="974"
     inkscape:window-x="-11"
     inkscape:window-y="-11"
     inkscape:window-maximized="1"
     inkscape:current-layer="g1">
    <inkscape:page
       x="0"
       y="0"
       inkscape:label="1"
       id="page1"
       width="1057"
       height="575.33301"
       margin="0"
       bleed="0" />
  </sodipodi:namedview>
  <g
     id="g1"
     inkscape:groupmode="layer"
     inkscape:label="1">
    <path
       id="path921"
       d="M 53.065795,34.726207 H 1045.0658 V 523.59553 H 53.065795 Z"
       style="fill:#ffffff;fill-opacity:1;fill-rule:nonzero;stroke:none;stroke-width:1.33333" />
    <path
       id="path922"
       d="M 53.065926,523.59553 V 34.726207"
       style="fill:none;stroke:#262626;stroke-width:0.666805;stroke-linecap:butt;stroke-linejoin:round;stroke-miterlimit:10;stroke-dasharray:none;stroke-opacity:0.14902" />
    <path
       id="path923"
       d="M 177.06657,523.59553 V 34.726207"
       style="fill:none;stroke:#262626;stroke-width:0.666805;stroke-linecap:butt;stroke-linejoin:round;stroke-miterlimit:10;stroke-dasharray:none;stroke-opacity:0.14902" />
    <path
       id="path924"
       d="M 301.06587,523.59553 V 34.726207"
       style="fill:none;stroke:#262626;stroke-width:0.666805;stroke-linecap:butt;stroke-linejoin:round;stroke-miterlimit:10;stroke-dasharray:none;stroke-opacity:0.14902" />
    <path
       id="path925"
       d="M 425.06651,523.59553 V 34.726207"
       style="fill:none;stroke:#262626;stroke-width:0.666805;stroke-linecap:butt;stroke-linejoin:round;stroke-miterlimit:10;stroke-dasharray:none;stroke-opacity:0.14902" />
    <path
       id="path926"
       d="M 549.06582,523.59553 V 34.726207"
       style="fill:none;stroke:#262626;stroke-width:0.666805;stroke-linecap:butt;stroke-linejoin:round;stroke-miterlimit:10;stroke-dasharray:none;stroke-opacity:0.14902" />
    <path
       id="path927"
       d="M 673.06646,523.59553 V 34.726207"
       style="fill:none;stroke:#262626;stroke-width:0.666805;stroke-linecap:butt;stroke-linejoin:round;stroke-miterlimit:10;stroke-dasharray:none;stroke-opacity:0.14902" />
    <path
       id="path928"
       d="M 797.06576,523.59553 V 34.726207"
       style="fill:none;stroke:#262626;stroke-width:0.666805;stroke-linecap:butt;stroke-linejoin:round;stroke-miterlimit:10;stroke-dasharray:none;stroke-opacity:0.14902" />
    <path
       id="path929"
       d="M 921.0664,523.59553 V 34.726207"
       style="fill:none;stroke:#262626;stroke-width:0.666805;stroke-linecap:butt;stroke-linejoin:round;stroke-miterlimit:10;stroke-dasharray:none;stroke-opacity:0.14902" />
    <path
       id="path930"
       d="M 1045.0657,523.59553 V 34.726207"
       style="fill:none;stroke:#262626;stroke-width:0.666805;stroke-linecap:butt;stroke-linejoin:round;stroke-miterlimit:10;stroke-dasharray:none;stroke-opacity:0.14902" />
    <path
       id="path931"
       d="M 1045.0657,523.59553 H 53.065926"
       style="fill:none;stroke:#262626;stroke-width:0.666805;stroke-linecap:butt;stroke-linejoin:round;stroke-miterlimit:10;stroke-dasharray:none;stroke-opacity:0.14902" />
    <path
       id="path932"
       d="M 1045.0657,442.11686 H 53.065926"
       style="fill:none;stroke:#262626;stroke-width:0.666805;stroke-linecap:butt;stroke-linejoin:round;stroke-miterlimit:10;stroke-dasharray:none;stroke-opacity:0.14902" />
    <path
       id="path933"
       d="M 1045.0657,360.6422 H 53.065926"
       style="fill:none;stroke:#262626;stroke-width:0.666805;stroke-linecap:butt;stroke-linejoin:round;stroke-miterlimit:10;stroke-dasharray:none;stroke-opacity:0.14902" />
    <path
       id="path934"
       d="M 1045.0657,279.16353 H 53.065926"
       style="fill:none;stroke:#262626;stroke-width:0.666805;stroke-linecap:butt;stroke-linejoin:round;stroke-miterlimit:10;stroke-dasharray:none;stroke-opacity:0.14902" />
    <path
       id="path935"
       d="M 1045.0657,197.68487 H 53.065926"
       style="fill:none;stroke:#262626;stroke-width:0.666805;stroke-linecap:butt;stroke-linejoin:round;stroke-miterlimit:10;stroke-dasharray:none;stroke-opacity:0.14902" />
    <path
       id="path936"
       d="M 1045.0657,116.20487 H 53.065926"
       style="fill:none;stroke:#262626;stroke-width:0.666805;stroke-linecap:butt;stroke-linejoin:round;stroke-miterlimit:10;stroke-dasharray:none;stroke-opacity:0.14902" />
    <path
       id="path937"
       d="M 1045.0657,34.726207 H 53.065926"
       style="fill:none;stroke:#262626;stroke-width:0.666805;stroke-linecap:butt;stroke-linejoin:round;stroke-miterlimit:10;stroke-dasharray:none;stroke-opacity:0.14902" />
    <path
       id="path938"
       d="M 53.065926,523.59553 H 1045.0657"
       style="fill:none;stroke:#262626;stroke-width:0.666805;stroke-linecap:square;stroke-linejoin:round;stroke-miterlimit:10;stroke-dasharray:none;stroke-opacity:1" />
    <path
       id="path939"
       d="m 53.065926,523.59553 v -9.92134"
       style="fill:none;stroke:#262626;stroke-width:0.666805;stroke-linecap:square;stroke-linejoin:round;stroke-miterlimit:10;stroke-dasharray:none;stroke-opacity:1" />
    <path
       id="path940"
       d="m 177.06657,523.59553 v -9.92134"
       style="fill:none;stroke:#262626;stroke-width:0.666805;stroke-linecap:square;stroke-linejoin:round;stroke-miterlimit:10;stroke-dasharray:none;stroke-opacity:1" />
    <path
       id="path941"
       d="m 301.06587,523.59553 v -9.92134"
       style="fill:none;stroke:#262626;stroke-width:0.666805;stroke-linecap:square;stroke-linejoin:round;stroke-miterlimit:10;stroke-dasharray:none;stroke-opacity:1" />
    <path
       id="path942"
       d="m 425.06651,523.59553 v -9.92134"
       style="fill:none;stroke:#262626;stroke-width:0.666805;stroke-linecap:square;stroke-linejoin:round;stroke-miterlimit:10;stroke-dasharray:none;stroke-opacity:1" />
    <path
       id="path943"
       d="m 549.06582,523.59553 v -9.92134"
       style="fill:none;stroke:#262626;stroke-width:0.666805;stroke-linecap:square;stroke-linejoin:round;stroke-miterlimit:10;stroke-dasharray:none;stroke-opacity:1" />
    <path
       id="path944"
       d="m 673.06646,523.59553 v -9.92134"
       style="fill:none;stroke:#262626;stroke-width:0.666805;stroke-linecap:square;stroke-linejoin:round;stroke-miterlimit:10;stroke-dasharray:none;stroke-opacity:1" />
    <path
       id="path945"
       d="m 797.06576,523.59553 v -9.92134"
       style="fill:none;stroke:#262626;stroke-width:0.666805;stroke-linecap:square;stroke-linejoin:round;stroke-miterlimit:10;stroke-dasharray:none;stroke-opacity:1" />
    <path
       id="path946"
       d="M 921.06644,528.5562 V 508.7135"
       style="fill:none;stroke:#262626;stroke-width:0.943947;stroke-linecap:square;stroke-linejoin:round;stroke-miterlimit:10;stroke-dasharray:none;stroke-opacity:1" />
    <path
       id="path947"
       d="m 1045.0657,523.59553 v -9.92134"
       style="fill:none;stroke:#262626;stroke-width:0.666805;stroke-linecap:square;stroke-linejoin:round;stroke-miterlimit:10;stroke-dasharray:none;stroke-opacity:1" />
    <text
       id="text947"
       xml:space="preserve"
       transform="scale(0.99979295,1.0002071)"
       x="43.740822"
       y="542.82526"
       style="font-size:16.0033px;stroke-width:1.33361"><tspan
         id="tspan947"
         style="font-variant:normal;font-weight:normal;font-size:13.3361px;font-family:Verdana;writing-mode:lr-tb;fill:#262626;fill-opacity:1;fill-rule:nonzero;stroke:none;stroke-width:1.33361"
         x="43.740822"
         dx="0 0 0 98.55349 0 0 0 97.403633 0 0 98.55349 0 0 0 97.403633 0 0 98.55349 0 0 0 97.404236 0 0 98.55349"
         y="542.82526">3.43.453.53.553.63.653.73.75</tspan><tspan
         id="tspan948"
         style="font-style:normal;font-variant:normal;font-weight:normal;font-stretch:normal;font-size:13.3361px;font-family:Verdana;-inkscape-font-specification:Verdana;writing-mode:lr-tb;fill:#262626;fill-opacity:1;fill-rule:nonzero;stroke:none;stroke-width:1.33361"
         x="1035.9485"
         y="542.82526">3.8</tspan></text>
    <text
       id="text948"
       xml:space="preserve"
       transform="scale(0.99979304,1.000207)"
       x="543.75146"
       y="576.04224"
       style="font-size:16.0033px;stroke-width:1.33361"><tspan
         id="tspan949"
         style="font-variant:normal;font-weight:bold;font-size:29.3394px;font-family:Verdana;writing-mode:lr-tb;fill:#262626;fill-opacity:1;fill-rule:nonzero;stroke:none;stroke-width:1.33361"
         x="543.75146"
         y="576.04224">k</tspan></text>
    <path
       id="path949"
       d="M 53.065926,523.59553 V 34.726207"
       style="fill:none;stroke:#262626;stroke-width:0.666805;stroke-linecap:square;stroke-linejoin:round;stroke-miterlimit:10;stroke-dasharray:none;stroke-opacity:1" />
    <path
       id="path950"
       d="m 53.065926,523.59553 h 9.917226"
       style="fill:none;stroke:#262626;stroke-width:0.666805;stroke-linecap:square;stroke-linejoin:round;stroke-miterlimit:10;stroke-dasharray:none;stroke-opacity:1" />
    <path
       id="path951"
       d="m 53.065926,442.11686 h 9.917226"
       style="fill:none;stroke:#262626;stroke-width:0.666805;stroke-linecap:square;stroke-linejoin:round;stroke-miterlimit:10;stroke-dasharray:none;stroke-opacity:1" />
    <path
       id="path952"
       d="m 53.065926,360.6422 h 9.917226"
       style="fill:none;stroke:#262626;stroke-width:0.666805;stroke-linecap:square;stroke-linejoin:round;stroke-miterlimit:10;stroke-dasharray:none;stroke-opacity:1" />
    <path
       id="path953"
       d="m 53.065926,279.16353 h 9.917226"
       style="fill:none;stroke:#262626;stroke-width:0.666805;stroke-linecap:square;stroke-linejoin:round;stroke-miterlimit:10;stroke-dasharray:none;stroke-opacity:1" />
    <path
       id="path954"
       d="m 53.065926,197.68487 h 9.917226"
       style="fill:none;stroke:#262626;stroke-width:0.666805;stroke-linecap:square;stroke-linejoin:round;stroke-miterlimit:10;stroke-dasharray:none;stroke-opacity:1" />
    <path
       id="path955"
       d="m 53.065926,116.20487 h 9.917226"
       style="fill:none;stroke:#262626;stroke-width:0.666805;stroke-linecap:square;stroke-linejoin:round;stroke-miterlimit:10;stroke-dasharray:none;stroke-opacity:1" />
    <path
       id="path956"
       d="m 53.065926,34.726207 h 9.917226"
       style="fill:none;stroke:#262626;stroke-width:0.666805;stroke-linecap:square;stroke-linejoin:round;stroke-miterlimit:10;stroke-dasharray:none;stroke-opacity:1" />
    <text
       id="text956"
       xml:space="preserve"
       transform="scale(0.99979295,1.0002071)"
       x="32.405159"
       y="528.82239"
       style="font-size:16.0033px;stroke-width:1.33361"><tspan
         id="tspan956"
         style="font-variant:normal;font-weight:normal;font-size:13.3361px;font-family:Verdana;writing-mode:lr-tb;fill:#262626;fill-opacity:1;fill-rule:nonzero;stroke:none;stroke-width:1.33361"
         x="32.405159"
         y="528.82239">10</tspan><tspan
         id="tspan957"
         style="font-variant:normal;font-weight:normal;font-size:13.3361px;font-family:Verdana;writing-mode:lr-tb;fill:#262626;fill-opacity:1;fill-rule:nonzero;stroke:none;stroke-width:1.33361"
         x="32.405159"
         y="365.89972">20</tspan><tspan
         id="tspan958"
         style="font-variant:normal;font-weight:normal;font-size:13.3361px;font-family:Verdana;writing-mode:lr-tb;fill:#262626;fill-opacity:1;fill-rule:nonzero;stroke:none;stroke-width:1.33361"
         x="32.405159"
         y="202.97739">30</tspan><tspan
         id="tspan959"
         style="font-variant:normal;font-weight:normal;font-size:13.3361px;font-family:Verdana;writing-mode:lr-tb;fill:#262626;fill-opacity:1;fill-rule:nonzero;stroke:none;stroke-width:1.33361"
         x="32.405159"
         y="40.054703">40</tspan></text>
    <text
       id="text959"
       xml:space="preserve"
       transform="matrix(0,-1.000207,0.99979305,0,0,0)"
       x="-393.85034"
       y="23.291269"
       style="font-size:15.9967px;stroke-width:1.33306"><tspan
         id="tspan960"
         style="font-variant:normal;font-weight:bold;font-size:29.3394px;font-family:Verdana;writing-mode:lr-tb;fill:#262626;fill-opacity:1;fill-rule:nonzero;stroke:none;stroke-width:1.33306"
         x="-393.85034"
         y="23.291269">Diameter (mm)</tspan></text>
    <text
       id="text960"
       xml:space="preserve"
       transform="scale(0.99979304,1.000207)"
       x="346.47092"
       y="29.552582"
       style="font-size:16.0033px;stroke-width:1.33361"><tspan
         id="tspan961"
         style="font-variant:normal;font-weight:700;font-size:37.3411px;font-family:Verdana;writing-mode:lr-tb;fill:#000000;fill-opacity:1;fill-rule:nonzero;stroke:none;stroke-width:1.33361"
         x="346.47092"
         y="29.552582">Optimal k for Diameter</tspan></text>
    <path
       id="path961"
       d="m 172.71313,34.7235 c 0,-5.208 -4.21868,-9.4266 -9.42934,-9.4266 -5.19734,0 -9.42666,4.2186 -9.42666,9.4266 0,5.208 4.22932,9.4374 9.42666,9.4374 5.21066,0 9.42934,-4.2294 9.42934,-9.4374 z"
       style="fill:#ff0000;fill-opacity:1;fill-rule:nonzero;stroke:none;stroke-width:9.4715;stroke-dasharray:none" />
    <path
       id="path962"
       d="m 280.43179,197.6876 c 0,-5.2108 -4.21866,-9.4374 -9.42934,-9.4374 -5.208,0 -9.42666,4.2266 -9.42666,9.4374 0,5.208 4.21866,9.4266 9.42666,9.4266 5.21068,0 9.42934,-4.2186 9.42934,-9.4266 z"
       style="fill:#ff0000;fill-opacity:1;fill-rule:nonzero;stroke:none;stroke-width:2.66934;stroke-dasharray:none" />
    <path
       id="path963"
       d="m 280.43179,34.7235 c 0,-5.208 -4.21867,-9.4266 -9.42933,-9.4266 -5.208,0 -9.42667,4.2186 -9.42667,9.4266 0,5.208 4.21867,9.4374 9.42667,9.4374 5.21066,0 9.42933,-4.2294 9.42933,-9.4374 z"
       style="fill:#0072bd;fill-opacity:1;fill-rule:nonzero;stroke:none;stroke-width:2.66667" />
    <path
       id="path964"
       d="m 280.43179,34.7235 c 0,-5.208 -4.21867,-9.4266 -9.42933,-9.4266 -5.208,0 -9.42667,4.2186 -9.42667,9.4266 0,5.208 4.21867,9.4374 9.42667,9.4374 5.21066,0 9.42933,-4.2294 9.42933,-9.4374 z"
       style="fill:#0072bd;fill-opacity:1;fill-rule:nonzero;stroke:none;stroke-width:2.66667" />
    <path
       id="path965"
       d="m 280.43179,34.7235 c 0,-5.208 -4.21867,-9.4266 -9.42933,-9.4266 -5.208,0 -9.42667,4.2186 -9.42667,9.4266 0,5.208 4.21867,9.4374 9.42667,9.4374 5.21066,0 9.42933,-4.2294 9.42933,-9.4374 z"
       style="fill:#0072bd;fill-opacity:1;fill-rule:nonzero;stroke:none;stroke-width:2.66667" />
    <path
       id="path966"
       d="m 280.43179,34.7235 c 0,-5.208 -4.21867,-9.4266 -9.42933,-9.4266 -5.208,0 -9.42667,4.2186 -9.42667,9.4266 0,5.208 4.21867,9.4374 9.42667,9.4374 5.21066,0 9.42933,-4.2294 9.42933,-9.4374 z"
       style="fill:#0072bd;fill-opacity:1;fill-rule:nonzero;stroke:none;stroke-width:2.66667" />
    <path
       id="path967"
       d="m 280.43179,34.7235 c 0,-5.208 -4.21867,-9.4266 -9.42933,-9.4266 -5.208,0 -9.42667,4.2186 -9.42667,9.4266 0,5.208 4.21867,9.4374 9.42667,9.4374 5.21066,0 9.42933,-4.2294 9.42933,-9.4374 z"
       style="fill:#0072bd;fill-opacity:1;fill-rule:nonzero;stroke:none;stroke-width:2.66667" />
    <path
       id="path968"
       d="m 280.43179,34.7235 c 0,-5.208 -4.21867,-9.4266 -9.42933,-9.4266 -5.208,0 -9.42667,4.2186 -9.42667,9.4266 0,5.208 4.21867,9.4374 9.42667,9.4374 5.21066,0 9.42933,-4.2294 9.42933,-9.4374 z"
       style="fill:#0072bd;fill-opacity:1;fill-rule:nonzero;stroke:none;stroke-width:2.66667" />
    <path
       id="path969"
       d="m 280.43179,34.7235 c 0,-5.208 -4.21866,-9.4266 -9.42934,-9.4266 -5.208,0 -9.42666,4.2186 -9.42666,9.4266 0,5.208 4.21866,9.4374 9.42666,9.4374 5.21068,0 9.42934,-4.2294 9.42934,-9.4374 z"
       style="fill:#ff0000;fill-opacity:1;fill-rule:nonzero;stroke:none;stroke-width:2.66934;stroke-dasharray:none" />
    <path
       id="path970"
       d="m 495.87112,197.6875 c 0,-5.2106 -4.22934,-9.4373 -9.42667,-9.4373 -5.208,0 -9.43733,4.2267 -9.43733,9.4373 0,5.208 4.22933,9.4267 9.43733,9.4267 5.19733,0 9.42667,-4.2187 9.42667,-9.4267 z"
       style="fill:#ff0000;fill-opacity:1;fill-rule:nonzero;stroke:none;stroke-width:2.66933;stroke-dasharray:none" />
    <path
       id="path971"
       d="m 603.58174,197.6875 c 0,-5.2106 -4.2186,-9.4373 -9.4266,-9.4373 -5.208,0 -9.42669,4.2267 -9.42669,9.4373 0,5.208 4.21869,9.4267 9.42669,9.4267 5.208,0 9.4266,-4.2187 9.4266,-9.4267 z"
       style="fill:#95282d;fill-opacity:1;fill-rule:nonzero;stroke:none;stroke-width:2.66933;stroke-dasharray:none" />
    <path
       id="path972"
       d="m 603.58174,197.6875 c 0,-5.2106 -4.2186,-9.4373 -9.4266,-9.4373 -5.208,0 -9.42669,4.2267 -9.42669,9.4373 0,5.208 4.21869,9.4267 9.42669,9.4267 5.208,0 9.4266,-4.2187 9.4266,-9.4267 z"
       style="fill:#ff0000;fill-opacity:1;fill-rule:nonzero;stroke:none;stroke-width:2.66933;stroke-dasharray:none" />
    <path
       id="path973"
       d="m 819.02174,360.6442 c 0,-5.2187 -4.2293,-9.4373 -9.4266,-9.4373 -5.208,0 -9.4374,4.2186 -9.4374,9.4373 0,5.208 4.2294,9.4293 9.4374,9.4293 5.1973,0 9.4266,-4.2213 9.4266,-9.4293 z"
       style="fill:#95282d;fill-opacity:1;fill-rule:nonzero;stroke:none;stroke-width:2.66933;stroke-dasharray:none" />
    <path
       id="path974"
       d="m 819.02174,360.6442 c 0,-5.2187 -4.2293,-9.4373 -9.4266,-9.4373 -5.208,0 -9.4374,4.2186 -9.4374,9.4373 0,5.208 4.2294,9.4293 9.4374,9.4293 5.1973,0 9.4266,-4.2213 9.4266,-9.4293 z"
       style="fill:#95282d;fill-opacity:1;fill-rule:nonzero;stroke:none;stroke-width:2.66933;stroke-dasharray:none" />
    <path
       id="path975"
       d="m 819.02174,360.6442 c 0,-5.2187 -4.2293,-9.4373 -9.4266,-9.4373 -5.208,0 -9.4374,4.2186 -9.4374,9.4373 0,5.208 4.2294,9.4293 9.4374,9.4293 5.1973,0 9.4266,-4.2213 9.4266,-9.4293 z"
       style="fill:#95282d;fill-opacity:1;fill-rule:nonzero;stroke:none;stroke-width:2.66933;stroke-dasharray:none" />
    <path
       id="path976"
       d="m 819.02174,360.6442 c 0,-5.2187 -4.2293,-9.4373 -9.4266,-9.4373 -5.208,0 -9.4374,4.2186 -9.4374,9.4373 0,5.208 4.2294,9.4293 9.4374,9.4293 5.1973,0 9.4266,-4.2213 9.4266,-9.4293 z"
       style="fill:#95282d;fill-opacity:1;fill-rule:nonzero;stroke:none;stroke-width:2.66933;stroke-dasharray:none" />
    <path
       id="path977"
       d="m 819.02174,360.6442 c 0,-5.2187 -4.2293,-9.4373 -9.4266,-9.4373 -5.208,0 -9.4374,4.2186 -9.4374,9.4373 0,5.208 4.2294,9.4293 9.4374,9.4293 5.1973,0 9.4266,-4.2213 9.4266,-9.4293 z"
       style="fill:#95282d;fill-opacity:1;fill-rule:nonzero;stroke:none;stroke-width:2.66933;stroke-dasharray:none" />
    <path
       id="path978"
       d="m 819.02174,360.6442 c 0,-5.2187 -4.2293,-9.4373 -9.4266,-9.4373 -5.208,0 -9.4374,4.2186 -9.4374,9.4373 0,5.208 4.2294,9.4293 9.4374,9.4293 5.1973,0 9.4266,-4.2213 9.4266,-9.4293 z"
       style="fill:#95282d;fill-opacity:1;fill-rule:nonzero;stroke:none;stroke-width:2.66933;stroke-dasharray:none" />
    <path
       id="path979"
       d="m 819.02174,360.6442 c 0,-5.2187 -4.2293,-9.4373 -9.4266,-9.4373 -5.208,0 -9.4374,4.2186 -9.4374,9.4373 0,5.208 4.2294,9.4293 9.4374,9.4293 5.1973,0 9.4266,-4.2213 9.4266,-9.4293 z"
       style="fill:#ff0000;fill-opacity:1;fill-rule:nonzero;stroke:none;stroke-width:2.66933;stroke-dasharray:none" />
    <path
       id="path980"
       d="m 926.73244,523.5929 c 0,-5.208 -4.2187,-9.4267 -9.4267,-9.4267 -5.208,0 -9.4266,4.2187 -9.4266,9.4267 0,5.208 4.2186,9.4373 9.4266,9.4373 5.208,0 9.4267,-4.2293 9.4267,-9.4373 z"
       style="fill:#0072bd;fill-opacity:1;fill-rule:nonzero;stroke:none;stroke-width:2.66933;stroke-dasharray:none" />
    <path
       id="path981"
       d="m 926.73244,523.5929 c 0,-5.208 -4.2187,-9.4267 -9.4267,-9.4267 -5.208,0 -9.4266,4.2187 -9.4266,9.4267 0,5.208 4.2186,9.4373 9.4266,9.4373 5.208,0 9.4267,-4.2293 9.4267,-9.4373 z"
       style="fill:#0072bd;fill-opacity:1;fill-rule:nonzero;stroke:none;stroke-width:2.66933;stroke-dasharray:none" />
    <path
       id="path982"
       d="m 926.73244,523.5929 c 0,-5.208 -4.2187,-9.4267 -9.4267,-9.4267 -5.208,0 -9.4266,4.2187 -9.4266,9.4267 0,5.208 4.2186,9.4373 9.4266,9.4373 5.208,0 9.4267,-4.2293 9.4267,-9.4373 z"
       style="fill:#ff0000;fill-opacity:1;fill-rule:nonzero;stroke:none;stroke-width:2.66933;stroke-dasharray:none" />
    <path
       id="path983"
       d="m 1034.4511,523.5929 c 0,-5.208 -4.2187,-9.4267 -9.4267,-9.4267 -5.208,0 -9.4267,4.2187 -9.4267,9.4267 0,5.208 4.2187,9.4373 9.4267,9.4373 5.208,0 9.4267,-4.2293 9.4267,-9.4373 z"
       style="fill:#0072bd;fill-opacity:1;fill-rule:nonzero;stroke:none;stroke-width:2.66933;stroke-dasharray:none" />
    <path
       id="path984"
       d="m 1034.4511,523.5929 c 0,-5.208 -4.2187,-9.4267 -9.4267,-9.4267 -5.208,0 -9.4267,4.2187 -9.4267,9.4267 0,5.208 4.2187,9.4373 9.4267,9.4373 5.208,0 9.4267,-4.2293 9.4267,-9.4373 z"
       style="fill:#0072bd;fill-opacity:1;fill-rule:nonzero;stroke:none;stroke-width:2.66933;stroke-dasharray:none" />
    <path
       id="path985"
       d="m 1034.4511,523.5929 c 0,-5.208 -4.2187,-9.4267 -9.4267,-9.4267 -5.208,0 -9.4267,4.2187 -9.4267,9.4267 0,5.208 4.2187,9.4373 9.4267,9.4373 5.208,0 9.4267,-4.2293 9.4267,-9.4373 z"
       style="fill:#0072bd;fill-opacity:1;fill-rule:nonzero;stroke:none;stroke-width:2.66933;stroke-dasharray:none" />
    <path
       id="path986"
       d="m 1034.4511,523.5929 c 0,-5.208 -4.2187,-9.4267 -9.4267,-9.4267 -5.208,0 -9.4267,4.2187 -9.4267,9.4267 0,5.208 4.2187,9.4373 9.4267,9.4373 5.208,0 9.4267,-4.2293 9.4267,-9.4373 z"
       style="fill:#0072bd;fill-opacity:1;fill-rule:nonzero;stroke:none;stroke-width:2.66933;stroke-dasharray:none" />
    <path
       id="path987"
       d="m 1034.4511,523.5929 c 0,-5.208 -4.2187,-9.4267 -9.4267,-9.4267 -5.208,0 -9.4267,4.2187 -9.4267,9.4267 0,5.208 4.2187,9.4373 9.4267,9.4373 5.208,0 9.4267,-4.2293 9.4267,-9.4373 z"
       style="fill:#ff0000;fill-opacity:1;fill-rule:nonzero;stroke:none;stroke-width:2.66933;stroke-dasharray:none" />
  </g>
</svg>
