<?xml version="1.0" encoding="UTF-8" standalone="no"?>
<!-- Created with Inkscape (http://www.inkscape.org/) -->

<svg
   version="1.1"
   id="svg1"
   width="1049.667"
   height="568"
   viewBox="0 0 1049.6669 568"
   sodipodi:docname="ST_Fit.svg"
   inkscape:version="1.4 (86a8ad7, 2024-10-11)"
   xmlns:inkscape="http://www.inkscape.org/namespaces/inkscape"
   xmlns:sodipodi="http://sodipodi.sourceforge.net/DTD/sodipodi-0.dtd"
   xmlns="http://www.w3.org/2000/svg"
   xmlns:svg="http://www.w3.org/2000/svg">
  <defs
     id="defs1" />
  <sodipodi:namedview
     id="namedview1"
     pagecolor="#ffffff"
     bordercolor="#000000"
     borderopacity="0.25"
     inkscape:showpageshadow="2"
     inkscape:pageopacity="0.0"
     inkscape:pagecheckerboard="0"
     inkscape:deskcolor="#d1d1d1"
     inkscape:zoom="0.97678802"
     inkscape:cx="460.69361"
     inkscape:cy="328.11623"
     inkscape:window-width="1920"
     inkscape:window-height="974"
     inkscape:window-x="-11"
     inkscape:window-y="-11"
     inkscape:window-maximized="1"
     inkscape:current-layer="g1">
    <inkscape:page
       x="0"
       y="0"
       inkscape:label="1"
       id="page1"
       width="1049.6669"
       height="568"
       margin="0"
       bleed="0" />
  </sodipodi:namedview>
  <g
     id="g1"
     inkscape:groupmode="layer"
     inkscape:label="1">
    <path
       id="path3"
       d="M 49.166727,526.52086 V 37.854171"
       style="fill:none;stroke:#262626;stroke-width:0.666667;stroke-linecap:butt;stroke-linejoin:round;stroke-miterlimit:10;stroke-dasharray:none;stroke-opacity:0.14902" />
    <path
       id="path4"
       d="M 214.5001,526.52086 V 37.854171"
       style="fill:none;stroke:#262626;stroke-width:0.666667;stroke-linecap:butt;stroke-linejoin:round;stroke-miterlimit:10;stroke-dasharray:none;stroke-opacity:0.14902" />
    <path
       id="path5"
       d="M 379.83348,526.52086 V 37.854171"
       style="fill:none;stroke:#262626;stroke-width:0.666667;stroke-linecap:butt;stroke-linejoin:round;stroke-miterlimit:10;stroke-dasharray:none;stroke-opacity:0.14902" />
    <path
       id="path6"
       d="M 545.16685,526.52086 V 37.854171"
       style="fill:none;stroke:#262626;stroke-width:0.666667;stroke-linecap:butt;stroke-linejoin:round;stroke-miterlimit:10;stroke-dasharray:none;stroke-opacity:0.14902" />
    <path
       id="path7"
       d="M 710.50021,526.52086 V 37.854171"
       style="fill:none;stroke:#262626;stroke-width:0.666667;stroke-linecap:butt;stroke-linejoin:round;stroke-miterlimit:10;stroke-dasharray:none;stroke-opacity:0.14902" />
    <path
       id="path8"
       d="M 875.83341,526.52086 V 37.854171"
       style="fill:none;stroke:#262626;stroke-width:0.666667;stroke-linecap:butt;stroke-linejoin:round;stroke-miterlimit:10;stroke-dasharray:none;stroke-opacity:0.14902" />
    <path
       id="path9"
       d="M 1041.1668,526.52086 V 37.854171"
       style="fill:none;stroke:#262626;stroke-width:0.666667;stroke-linecap:butt;stroke-linejoin:round;stroke-miterlimit:10;stroke-dasharray:none;stroke-opacity:0.14902" />
    <path
       id="path10"
       d="M 1041.1668,526.52086 H 49.166727"
       style="fill:none;stroke:#262626;stroke-width:0.666667;stroke-linecap:butt;stroke-linejoin:round;stroke-miterlimit:10;stroke-dasharray:none;stroke-opacity:0.14902" />
    <path
       id="path11"
       d="M 1041.1668,363.63199 H 49.166727"
       style="fill:none;stroke:#262626;stroke-width:0.666667;stroke-linecap:butt;stroke-linejoin:round;stroke-miterlimit:10;stroke-dasharray:none;stroke-opacity:0.14902" />
    <path
       id="path12"
       d="M 1041.1668,200.74307 H 49.166727"
       style="fill:none;stroke:#262626;stroke-width:0.666667;stroke-linecap:butt;stroke-linejoin:round;stroke-miterlimit:10;stroke-dasharray:none;stroke-opacity:0.14902" />
    <path
       id="path13"
       d="M 1041.1668,37.854171 H 49.166727"
       style="fill:none;stroke:#262626;stroke-width:0.666667;stroke-linecap:butt;stroke-linejoin:round;stroke-miterlimit:10;stroke-dasharray:none;stroke-opacity:0.14902" />
    <path
       id="path14"
       d="M 49.166727,526.52086 H 1041.1668"
       style="fill:none;stroke:#262626;stroke-width:0.666667;stroke-linecap:square;stroke-linejoin:round;stroke-miterlimit:10;stroke-dasharray:none;stroke-opacity:1" />
    <path
       id="path15"
       d="m 49.166727,526.52086 v -9.92"
       style="fill:none;stroke:#262626;stroke-width:0.666667;stroke-linecap:square;stroke-linejoin:round;stroke-miterlimit:10;stroke-dasharray:none;stroke-opacity:1" />
    <path
       id="path16"
       d="m 214.5001,526.52086 v -9.92"
       style="fill:none;stroke:#262626;stroke-width:0.666667;stroke-linecap:square;stroke-linejoin:round;stroke-miterlimit:10;stroke-dasharray:none;stroke-opacity:1" />
    <path
       id="path17"
       d="m 379.83348,526.52086 v -9.92"
       style="fill:none;stroke:#262626;stroke-width:0.666667;stroke-linecap:square;stroke-linejoin:round;stroke-miterlimit:10;stroke-dasharray:none;stroke-opacity:1" />
    <path
       id="path18"
       d="m 545.16685,526.52086 v -9.92"
       style="fill:none;stroke:#262626;stroke-width:0.666667;stroke-linecap:square;stroke-linejoin:round;stroke-miterlimit:10;stroke-dasharray:none;stroke-opacity:1" />
    <path
       id="path19"
       d="m 710.50021,526.52086 v -9.92"
       style="fill:none;stroke:#262626;stroke-width:0.666667;stroke-linecap:square;stroke-linejoin:round;stroke-miterlimit:10;stroke-dasharray:none;stroke-opacity:1" />
    <path
       id="path20"
       d="m 875.83341,526.52086 v -9.92"
       style="fill:none;stroke:#262626;stroke-width:0.666667;stroke-linecap:square;stroke-linejoin:round;stroke-miterlimit:10;stroke-dasharray:none;stroke-opacity:1" />
    <path
       id="path21"
       d="m 1041.1668,526.52086 v -9.92"
       style="fill:none;stroke:#262626;stroke-width:0.666667;stroke-linecap:square;stroke-linejoin:round;stroke-miterlimit:10;stroke-dasharray:none;stroke-opacity:1" />
    <path
       id="path22"
       d="m 44.800781,545.85547 h -1.171875 v -7.46875 c -0.28125,0.27343 -0.652344,0.54297 -1.109375,0.8125 -0.460938,0.27343 -0.871094,0.47656 -1.234375,0.60937 v -1.14062 c 0.65625,-0.30078 1.226562,-0.67188 1.71875,-1.10938 0.488281,-0.44531 0.832031,-0.875 1.03125,-1.28125 h 0.765625 z m 3.648438,0 v -1.32813 h 1.34375 v 1.32813 z m 3.066406,-2.51563 1.171874,-0.15625 c 0.132813,0.66797 0.363282,1.14844 0.6875,1.4375 0.320313,0.29297 0.710938,0.4375 1.171876,0.4375 0.550781,0 1.015624,-0.1914 1.390624,-0.57812 0.382813,-0.38282 0.578126,-0.85938 0.578126,-1.42188 0,-0.53125 -0.179688,-0.96875 -0.53125,-1.3125 -0.34375,-0.35156 -0.789063,-0.53125 -1.328126,-0.53125 -0.230468,0 -0.507812,0.043 -0.828124,0.125 l 0.125,-1.03125 c 0.08203,0.0117 0.144531,0.0156 0.1875,0.0156 0.5,0 0.945312,-0.12891 1.34375,-0.39063 0.40625,-0.25781 0.609374,-0.66015 0.609374,-1.20312 0,-0.42579 -0.148437,-0.78125 -0.4375,-1.0625 -0.292968,-0.28125 -0.667968,-0.42188 -1.125,-0.42188 -0.460937,0 -0.839843,0.14844 -1.140624,0.4375 -0.304688,0.28125 -0.5,0.71094 -0.59375,1.28125 l -1.171876,-0.21875 c 0.144532,-0.78125 0.472657,-1.38281 0.984376,-1.8125 0.507812,-0.4375 1.140624,-0.65625 1.890624,-0.65625 0.519532,0 1,0.11719 1.4375,0.34375 0.4375,0.21875 0.769532,0.52344 1,0.90625 0.238282,0.38672 0.359376,0.79688 0.359376,1.23438 0,0.40625 -0.117188,0.78125 -0.34375,1.125 -0.21875,0.33593 -0.542969,0.60156 -0.96875,0.79687 0.5625,0.13672 1,0.41406 1.3125,0.82813 0.3125,0.40625 0.46875,0.91797 0.46875,1.53125 0,0.83593 -0.308594,1.54297 -0.921876,2.125 -0.605468,0.57422 -1.371093,0.85937 -2.296874,0.85937 -0.835938,0 -1.53125,-0.25 -2.09375,-0.75 -0.554688,-0.5 -0.867188,-1.14453 -0.9375,-1.9375 z m 0,0"
       style="fill:#262626;fill-opacity:1;fill-rule:nonzero;stroke:none;stroke-width:0.666667"
       aria-label="1.3" />
    <path
       id="path23"
       d="m 210.13672,545.85547 h -1.17187 v -7.46875 c -0.28125,0.27343 -0.65235,0.54297 -1.10938,0.8125 -0.46094,0.27343 -0.87109,0.47656 -1.23437,0.60937 v -1.14062 c 0.65625,-0.30078 1.22656,-0.67188 1.71875,-1.10938 0.48828,-0.44531 0.83203,-0.875 1.03125,-1.28125 h 0.76562 z m 3.64844,0 v -1.32813 h 1.34375 v 1.32813 z m 6.8125,0 v -2.28125 h -4.14063 v -1.07813 l 4.34375,-6.1875 h 0.96875 v 6.1875 h 1.28125 v 1.07813 h -1.28125 v 2.28125 z m 0,-3.35938 v -4.29687 l -2.98438,4.29687 z m 0,0"
       style="fill:#262626;fill-opacity:1;fill-rule:nonzero;stroke:none;stroke-width:0.666667"
       aria-label="1.4" />
    <path
       id="path24"
       d="m 375.46875,545.85547 h -1.17188 v -7.46875 c -0.28125,0.27343 -0.65234,0.54297 -1.10937,0.8125 -0.46094,0.27343 -0.8711,0.47656 -1.23438,0.60937 v -1.14062 c 0.65625,-0.30078 1.22657,-0.67188 1.71875,-1.10938 0.48828,-0.44531 0.83203,-0.875 1.03125,-1.28125 h 0.76563 z m 3.64844,0 v -1.32813 h 1.34375 v 1.32813 z m 3.05078,-2.5 1.23437,-0.10938 c 0.0937,0.60547 0.30469,1.0586 0.64063,1.35938 0.33203,0.30468 0.73437,0.45312 1.20312,0.45312 0.5625,0 1.03516,-0.21094 1.42188,-0.64062 0.39453,-0.42578 0.59375,-0.98828 0.59375,-1.6875 0,-0.66407 -0.1875,-1.19141 -0.5625,-1.57813 -0.375,-0.39453 -0.8711,-0.59375 -1.48438,-0.59375 -0.375,0 -0.71484,0.0899 -1.01562,0.26563 -0.30469,0.16797 -0.54297,0.39062 -0.71875,0.67187 l -1.09375,-0.15625 0.92187,-4.89062 h 4.75 v 1.10937 h -3.8125 l -0.51562,2.5625 c 0.57031,-0.39453 1.17187,-0.59375 1.79687,-0.59375 0.83203,0 1.53516,0.29297 2.10938,0.875 0.57031,0.57422 0.85937,1.3125 0.85937,2.21875 0,0.86719 -0.25,1.60938 -0.75,2.23438 -0.61719,0.77343 -1.44922,1.15625 -2.5,1.15625 -0.875,0 -1.58984,-0.23828 -2.14062,-0.71875 -0.54297,-0.48828 -0.85547,-1.13282 -0.9375,-1.9375 z m 0,0"
       style="fill:#262626;fill-opacity:1;fill-rule:nonzero;stroke:none;stroke-width:0.666667"
       aria-label="1.5" />
    <path
       id="path25"
       d="m 540.80078,545.85547 h -1.17187 v -7.46875 c -0.28125,0.27343 -0.65234,0.54297 -1.10938,0.8125 -0.46093,0.27343 -0.87109,0.47656 -1.23437,0.60937 v -1.14062 c 0.65625,-0.30078 1.22656,-0.67188 1.71875,-1.10938 0.48828,-0.44531 0.83203,-0.875 1.03125,-1.28125 h 0.76562 z m 3.64844,0 v -1.32813 h 1.34375 v 1.32813 z m 9.12891,-7.20313 -1.15625,0.0937 c -0.10547,-0.45703 -0.25,-0.78906 -0.4375,-1 -0.32422,-0.33203 -0.71485,-0.5 -1.17188,-0.5 -0.375,0 -0.70312,0.10547 -0.98437,0.3125 -0.375,0.26172 -0.67188,0.65235 -0.89063,1.17188 -0.21093,0.51172 -0.3125,1.24609 -0.3125,2.20312 0.28125,-0.42578 0.625,-0.74219 1.03125,-0.95312 0.40625,-0.20703 0.83203,-0.3125 1.28125,-0.3125 0.78125,0 1.44141,0.28906 1.98438,0.85937 0.55078,0.57422 0.82812,1.32031 0.82812,2.23438 0,0.59375 -0.13281,1.15234 -0.39062,1.67187 -0.25,0.51172 -0.60547,0.90235 -1.0625,1.17188 -0.44922,0.26953 -0.96094,0.40625 -1.53125,0.40625 -0.98047,0 -1.77735,-0.35157 -2.39063,-1.0625 -0.61718,-0.71875 -0.92187,-1.90625 -0.92187,-3.5625 0,-1.84375 0.33594,-3.17969 1.01562,-4.01563 0.60157,-0.72656 1.40625,-1.09375 2.40625,-1.09375 0.75,0 1.36328,0.21485 1.84375,0.64063 0.47657,0.41797 0.76563,0.99609 0.85938,1.73437 z m -4.78125,4.10938 c 0,0.40625 0.082,0.79687 0.25,1.17187 0.17578,0.36719 0.41406,0.64844 0.71875,0.84375 0.3125,0.1875 0.64062,0.28125 0.98437,0.28125 0.48828,0 0.91016,-0.19531 1.26563,-0.59375 0.36328,-0.40625 0.54687,-0.95312 0.54687,-1.64062 0,-0.65625 -0.17968,-1.17188 -0.53125,-1.54688 -0.35547,-0.38281 -0.79687,-0.57812 -1.32812,-0.57812 -0.53125,0 -0.98438,0.19531 -1.35938,0.57812 -0.36718,0.375 -0.54687,0.8711 -0.54687,1.48438 z m 0,0"
       style="fill:#262626;fill-opacity:1;fill-rule:nonzero;stroke:none;stroke-width:0.666667"
       aria-label="1.6" />
    <path
       id="path26"
       d="m 706.13672,545.85547 h -1.17188 v -7.46875 c -0.28125,0.27343 -0.65234,0.54297 -1.10937,0.8125 -0.46094,0.27343 -0.8711,0.47656 -1.23438,0.60937 v -1.14062 c 0.65625,-0.30078 1.22657,-0.67188 1.71875,-1.10938 0.48828,-0.44531 0.83203,-0.875 1.03125,-1.28125 h 0.76563 z m 3.64844,0 v -1.32813 h 1.34375 v 1.32813 z m 3.125,-8.29688 v -1.125 h 6.1875 v 0.92188 c -0.61719,0.64843 -1.21875,1.50781 -1.8125,2.57812 -0.59375,1.0625 -1.05469,2.16406 -1.375,3.29688 -0.24219,0.80468 -0.39063,1.67968 -0.45313,2.625 h -1.20312 c 0.008,-0.75 0.15625,-1.65625 0.4375,-2.71875 0.28125,-1.0625 0.67968,-2.08594 1.20312,-3.07813 0.53125,-0.98828 1.09375,-1.82031 1.6875,-2.5 z m 0,0"
       style="fill:#262626;fill-opacity:1;fill-rule:nonzero;stroke:none;stroke-width:0.666667"
       aria-label="1.7" />
    <path
       id="path27"
       d="m 871.46875,545.85547 h -1.17188 v -7.46875 c -0.28125,0.27343 -0.65234,0.54297 -1.10937,0.8125 -0.46094,0.27343 -0.87109,0.47656 -1.23438,0.60937 v -1.14062 c 0.65625,-0.30078 1.22657,-0.67188 1.71875,-1.10938 0.48829,-0.44531 0.83204,-0.875 1.03125,-1.28125 h 0.76563 z m 3.64844,0 v -1.32813 h 1.34375 v 1.32813 z m 4.86328,-5.17188 c -0.49219,-0.17578 -0.85547,-0.42969 -1.09375,-0.76562 -0.23047,-0.33203 -0.34375,-0.72657 -0.34375,-1.1875 0,-0.6875 0.25,-1.26563 0.75,-1.73438 0.5,-0.47656 1.16015,-0.71875 1.98437,-0.71875 0.83203,0 1.50391,0.2461 2.01563,0.73438 0.50781,0.48047 0.76562,1.0625 0.76562,1.75 0,0.44922 -0.12109,0.83984 -0.35937,1.17187 -0.23047,0.32422 -0.57813,0.57422 -1.04688,0.75 0.58203,0.1875 1.02344,0.4961 1.32813,0.92188 0.3125,0.42968 0.46875,0.93359 0.46875,1.51562 0,0.82422 -0.29297,1.51172 -0.875,2.0625 -0.57422,0.55469 -1.32813,0.82813 -2.26563,0.82813 -0.94922,0 -1.71093,-0.27344 -2.28125,-0.82813 -0.57422,-0.5625 -0.85937,-1.25781 -0.85937,-2.09375 0,-0.61328 0.15625,-1.1289 0.46875,-1.54687 0.3125,-0.42578 0.75781,-0.71094 1.34375,-0.85938 z m -0.23438,-1.98437 c 0,0.44922 0.14453,0.82031 0.4375,1.10937 0.28907,0.28125 0.66407,0.42188 1.125,0.42188 0.44532,0 0.81641,-0.14063 1.10938,-0.42188 0.28906,-0.28125 0.4375,-0.6289 0.4375,-1.04687 0,-0.42578 -0.15235,-0.78516 -0.45313,-1.07813 -0.29297,-0.28906 -0.66406,-0.4375 -1.10937,-0.4375 -0.44922,0 -0.82031,0.14844 -1.10938,0.4375 -0.29297,0.28125 -0.4375,0.6211 -0.4375,1.01563 z m -0.375,4.40625 c 0,0.33593 0.0781,0.65625 0.23438,0.96875 0.15625,0.3125 0.39062,0.55859 0.70312,0.73437 0.3125,0.16797 0.64844,0.25 1.01563,0.25 0.55078,0 1.00781,-0.17578 1.375,-0.53125 0.36328,-0.36328 0.54687,-0.82812 0.54687,-1.39062 0,-0.5625 -0.1875,-1.02344 -0.5625,-1.39063 -0.375,-0.375 -0.84375,-0.5625 -1.40625,-0.5625 -0.55468,0 -1.01172,0.1836 -1.375,0.54688 -0.35547,0.36718 -0.53125,0.82422 -0.53125,1.375 z m 0,0"
       style="fill:#262626;fill-opacity:1;fill-rule:nonzero;stroke:none;stroke-width:0.666667"
       aria-label="1.8" />
    <path
       id="path28"
       d="m 1036.8008,545.85547 h -1.1719 v -7.46875 c -0.2812,0.27343 -0.6523,0.54297 -1.1093,0.8125 -0.461,0.27343 -0.8711,0.47656 -1.2344,0.60937 v -1.14062 c 0.6562,-0.30078 1.2265,-0.67188 1.7187,-1.10938 0.4883,-0.44531 0.8321,-0.875 1.0313,-1.28125 h 0.7656 z m 3.6484,0 v -1.32813 h 1.3438 v 1.32813 z m 3.2383,-2.20313 1.125,-0.10937 c 0.094,0.53125 0.2735,0.91797 0.5469,1.15625 0.2695,0.24218 0.6133,0.35937 1.0312,0.35937 0.3516,0 0.6641,-0.082 0.9375,-0.25 0.2813,-0.16406 0.504,-0.38281 0.6719,-0.65625 0.1758,-0.28125 0.3203,-0.65625 0.4375,-1.125 0.1133,-0.46875 0.1719,-0.9414 0.1719,-1.42187 0,-0.0508 0,-0.12891 0,-0.23438 -0.2422,0.36719 -0.5625,0.66797 -0.9688,0.90625 -0.3984,0.23047 -0.8359,0.34375 -1.3125,0.34375 -0.7929,0 -1.4648,-0.28515 -2.0156,-0.85937 -0.5429,-0.57032 -0.8125,-1.32813 -0.8125,-2.26563 0,-0.96875 0.2852,-1.74219 0.8594,-2.32812 0.5703,-0.59375 1.2852,-0.89063 2.1406,-0.89063 0.625,0 1.1914,0.16797 1.7031,0.5 0.5196,0.33594 0.9102,0.8125 1.1719,1.4375 0.2696,0.61719 0.4063,1.50781 0.4063,2.67188 0,1.21875 -0.1367,2.19531 -0.4063,2.92187 -0.2617,0.71875 -0.6523,1.26563 -1.1719,1.64063 -0.5234,0.375 -1.1367,0.5625 -1.8437,0.5625 -0.7422,0 -1.3516,-0.20313 -1.8281,-0.60938 -0.4688,-0.41406 -0.75,-1 -0.8438,-1.75 z m 4.7969,-4.21875 c 0,-0.66406 -0.1836,-1.19531 -0.5469,-1.59375 -0.3554,-0.39453 -0.7812,-0.59375 -1.2812,-0.59375 -0.5235,0 -0.9805,0.21485 -1.375,0.64063 -0.3867,0.42968 -0.5782,0.98047 -0.5782,1.65625 0,0.60547 0.1797,1.10156 0.5469,1.48437 0.375,0.375 0.8281,0.5625 1.3594,0.5625 0.5508,0 1,-0.1875 1.3437,-0.5625 0.3516,-0.38281 0.5313,-0.91406 0.5313,-1.59375 z m 0,0"
       style="fill:#262626;fill-opacity:1;fill-rule:nonzero;stroke:none;stroke-width:0.666667"
       aria-label="1.9" />
    <path
       id="path30"
       d="M 49.166727,526.52086 V 37.854171"
       style="fill:none;stroke:#262626;stroke-width:0.666667;stroke-linecap:square;stroke-linejoin:round;stroke-miterlimit:10;stroke-dasharray:none;stroke-opacity:1" />
    <path
       id="path31"
       d="m 49.166727,526.52086 h 9.920061"
       style="fill:none;stroke:#262626;stroke-width:0.666667;stroke-linecap:square;stroke-linejoin:round;stroke-miterlimit:10;stroke-dasharray:none;stroke-opacity:1" />
    <path
       id="path32"
       d="m 49.166727,363.63199 h 9.920061"
       style="fill:none;stroke:#262626;stroke-width:0.666667;stroke-linecap:square;stroke-linejoin:round;stroke-miterlimit:10;stroke-dasharray:none;stroke-opacity:1" />
    <path
       id="path33"
       d="m 49.166727,200.74307 h 9.920061"
       style="fill:none;stroke:#262626;stroke-width:0.666667;stroke-linecap:square;stroke-linejoin:round;stroke-miterlimit:10;stroke-dasharray:none;stroke-opacity:1" />
    <path
       id="path34"
       d="m 49.166727,37.854171 h 9.920061"
       style="fill:none;stroke:#262626;stroke-width:0.666667;stroke-linecap:square;stroke-linejoin:round;stroke-miterlimit:10;stroke-dasharray:none;stroke-opacity:1" />
    <path
       id="path35"
       d="m 36.378907,527.15234 c 0,-1.125 0.113281,-2.03125 0.34375,-2.71875 0.238281,-0.6875 0.585937,-1.21875 1.046875,-1.59375 0.457031,-0.375 1.03125,-0.5625 1.71875,-0.5625 0.519531,0 0.972656,0.10547 1.359375,0.3125 0.382812,0.19922 0.703125,0.4961 0.953125,0.89063 0.25,0.38672 0.445312,0.85937 0.59375,1.42187 0.144531,0.55469 0.21875,1.30469 0.21875,2.25 0,1.11719 -0.121094,2.01563 -0.359375,2.70313 -0.230469,0.6875 -0.574219,1.21875 -1.03125,1.59375 -0.449219,0.375 -1.027344,0.5625 -1.734375,0.5625 -0.917969,0 -1.636719,-0.32813 -2.15625,-0.98438 -0.636719,-0.78906 -0.953125,-2.08203 -0.953125,-3.875 z m 1.203125,0 c 0,1.5625 0.179687,2.60547 0.546875,3.125 0.375,0.52344 0.828125,0.78125 1.359375,0.78125 0.539062,0 0.992187,-0.25781 1.359375,-0.78125 0.375,-0.51953 0.5625,-1.5625 0.5625,-3.125 0,-1.57031 -0.1875,-2.61328 -0.5625,-3.125 -0.367188,-0.51953 -0.820313,-0.78125 -1.359375,-0.78125 -0.542969,0 -0.976563,0.23047 -1.296875,0.6875 -0.40625,0.58594 -0.609375,1.65625 -0.609375,3.21875 z m 0,0"
       style="fill:#262626;fill-opacity:1;fill-rule:nonzero;stroke:none;stroke-width:0.666667"
       aria-label="0" />
    <path
       id="path36"
       d="m 18.378907,364.26172 c 0,-1.125 0.113281,-2.03125 0.34375,-2.71875 0.238281,-0.6875 0.585937,-1.21875 1.046875,-1.59375 0.457031,-0.375 1.03125,-0.5625 1.71875,-0.5625 0.519531,0 0.972656,0.10547 1.359375,0.3125 0.382812,0.19922 0.703125,0.4961 0.953125,0.89063 0.25,0.38672 0.445312,0.85937 0.59375,1.42187 0.144531,0.55469 0.21875,1.30469 0.21875,2.25 0,1.11719 -0.121094,2.01563 -0.359375,2.70313 -0.230469,0.6875 -0.574219,1.21875 -1.03125,1.59375 -0.449219,0.375 -1.027344,0.5625 -1.734375,0.5625 -0.917969,0 -1.636719,-0.32813 -2.15625,-0.98438 -0.636719,-0.78906 -0.953125,-2.08203 -0.953125,-3.875 z m 1.203125,0 c 0,1.5625 0.179687,2.60547 0.546875,3.125 0.375,0.52344 0.828125,0.78125 1.359375,0.78125 0.539062,0 0.992187,-0.25781 1.359375,-0.78125 0.375,-0.51953 0.5625,-1.5625 0.5625,-3.125 0,-1.57031 -0.1875,-2.61328 -0.5625,-3.125 -0.367188,-0.51953 -0.820313,-0.78125 -1.359375,-0.78125 -0.542969,0 -0.976563,0.23047 -1.296875,0.6875 -0.40625,0.58594 -0.609375,1.65625 -0.609375,3.21875 z m 6.867187,4.70313 v -1.32813 h 1.34375 v 1.32813 z M 29.5,364.26172 c 0,-1.125 0.113282,-2.03125 0.34375,-2.71875 0.238282,-0.6875 0.585938,-1.21875 1.046876,-1.59375 0.457031,-0.375 1.03125,-0.5625 1.71875,-0.5625 0.519531,0 0.972656,0.10547 1.359374,0.3125 0.382813,0.19922 0.703126,0.4961 0.953126,0.89063 0.25,0.38672 0.445312,0.85937 0.59375,1.42187 0.144531,0.55469 0.21875,1.30469 0.21875,2.25 0,1.11719 -0.121094,2.01563 -0.359376,2.70313 -0.230468,0.6875 -0.574218,1.21875 -1.03125,1.59375 -0.449218,0.375 -1.027343,0.5625 -1.734374,0.5625 -0.917969,0 -1.636719,-0.32813 -2.15625,-0.98438 C 29.816407,367.34766 29.5,366.05469 29.5,364.26172 Z m 1.203126,0 c 0,1.5625 0.179687,2.60547 0.546874,3.125 0.375,0.52344 0.828126,0.78125 1.359376,0.78125 0.539062,0 0.992187,-0.25781 1.359374,-0.78125 0.375,-0.51953 0.5625,-1.5625 0.5625,-3.125 0,-1.57031 -0.1875,-2.61328 -0.5625,-3.125 -0.367187,-0.51953 -0.820312,-0.78125 -1.359374,-0.78125 -0.542969,0 -0.976563,0.23047 -1.296876,0.6875 -0.40625,0.58594 -0.609374,1.65625 -0.609374,3.21875 z m 6.210937,2.20313 1.234375,-0.10938 c 0.09375,0.60547 0.304688,1.0586 0.640625,1.35938 0.332031,0.30468 0.734375,0.45312 1.203125,0.45312 0.5625,0 1.035156,-0.21094 1.421875,-0.64062 0.394531,-0.42578 0.59375,-0.98828 0.59375,-1.6875 0,-0.66407 -0.1875,-1.19141 -0.5625,-1.57813 -0.375,-0.39453 -0.871094,-0.59375 -1.484375,-0.59375 -0.375,0 -0.714844,0.0898 -1.015625,0.26563 -0.304687,0.16797 -0.542969,0.39062 -0.71875,0.67187 l -1.09375,-0.15625 0.921875,-4.89062 h 4.75 v 1.10937 h -3.8125 l -0.515625,2.5625 c 0.570313,-0.39453 1.171875,-0.59375 1.796875,-0.59375 0.832031,0 1.535156,0.29297 2.109375,0.875 0.570313,0.57422 0.859375,1.3125 0.859375,2.21875 0,0.86719 -0.25,1.60938 -0.75,2.23438 -0.617188,0.77343 -1.449219,1.15625 -2.5,1.15625 -0.875,0 -1.589844,-0.23828 -2.140625,-0.71875 -0.542969,-0.48828 -0.855469,-1.13282 -0.9375,-1.9375 z m 0,0"
       style="fill:#262626;fill-opacity:1;fill-rule:nonzero;stroke:none;stroke-width:0.666667"
       aria-label="0.05" />
    <path
       id="path37"
       d="m 25.714844,201.375 c 0,-1.125 0.113281,-2.03125 0.34375,-2.71875 0.238281,-0.6875 0.585937,-1.21875 1.046875,-1.59375 0.457031,-0.375 1.03125,-0.5625 1.71875,-0.5625 0.519531,0 0.972656,0.10547 1.359375,0.3125 0.382812,0.19922 0.703125,0.49609 0.953125,0.89062 0.25,0.38672 0.445312,0.85938 0.59375,1.42188 0.144531,0.55469 0.21875,1.30469 0.21875,2.25 0,1.11719 -0.121094,2.01562 -0.359375,2.70312 -0.230469,0.6875 -0.574219,1.21875 -1.03125,1.59375 -0.449219,0.375 -1.027344,0.5625 -1.734375,0.5625 -0.917969,0 -1.636719,-0.32812 -2.15625,-0.98437 -0.636719,-0.78906 -0.953125,-2.08203 -0.953125,-3.875 z m 1.203125,0 c 0,1.5625 0.179687,2.60547 0.546875,3.125 0.375,0.52344 0.828125,0.78125 1.359375,0.78125 0.539062,0 0.992187,-0.25781 1.359375,-0.78125 0.375,-0.51953 0.5625,-1.5625 0.5625,-3.125 0,-1.57031 -0.1875,-2.61328 -0.5625,-3.125 -0.367188,-0.51953 -0.820313,-0.78125 -1.359375,-0.78125 -0.542969,0 -0.976563,0.23047 -1.296875,0.6875 -0.40625,0.58594 -0.609375,1.65625 -0.609375,3.21875 z m 6.863281,4.70312 V 204.75 H 35.125 v 1.32812 z m 7.472657,0 h -1.171876 v -7.46875 c -0.28125,0.27344 -0.652344,0.54297 -1.109374,0.8125 -0.460938,0.27344 -0.871094,0.47657 -1.234376,0.60938 v -1.14063 c 0.65625,-0.30078 1.226563,-0.67187 1.71875,-1.10937 0.488282,-0.44531 0.832032,-0.875 1.03125,-1.28125 h 0.765626 z m 0,0"
       style="fill:#262626;fill-opacity:1;fill-rule:nonzero;stroke:none;stroke-width:0.666667"
       aria-label="0.1" />
    <path
       id="path38"
       d="m 18.378907,38.484375 c 0,-1.125 0.113281,-2.03125 0.34375,-2.71875 0.238281,-0.6875 0.585937,-1.21875 1.046875,-1.59375 0.457031,-0.375 1.03125,-0.5625 1.71875,-0.5625 0.519531,0 0.972656,0.105469 1.359375,0.3125 0.382812,0.199219 0.703125,0.496093 0.953125,0.890625 0.25,0.386718 0.445312,0.859375 0.59375,1.421875 0.144531,0.554687 0.21875,1.304687 0.21875,2.25 0,1.117187 -0.121094,2.015625 -0.359375,2.703125 -0.230469,0.6875 -0.574219,1.21875 -1.03125,1.59375 -0.449219,0.375 -1.027344,0.5625 -1.734375,0.5625 -0.917969,0 -1.636719,-0.328125 -2.15625,-0.984375 -0.636719,-0.789063 -0.953125,-2.082031 -0.953125,-3.875 z m 1.203125,0 c 0,1.5625 0.179687,2.605469 0.546875,3.125 0.375,0.523437 0.828125,0.78125 1.359375,0.78125 0.539062,0 0.992187,-0.257813 1.359375,-0.78125 0.375,-0.519531 0.5625,-1.5625 0.5625,-3.125 0,-1.570313 -0.1875,-2.613281 -0.5625,-3.125 -0.367188,-0.519531 -0.820313,-0.78125 -1.359375,-0.78125 -0.542969,0 -0.976563,0.230469 -1.296875,0.6875 -0.40625,0.585937 -0.609375,1.65625 -0.609375,3.21875 z m 6.867187,4.703125 v -1.328125 h 1.34375 V 43.1875 Z m 7.472657,0 H 32.75 v -7.46875 c -0.28125,0.273438 -0.652343,0.542968 -1.109374,0.8125 -0.460938,0.273437 -0.871094,0.476562 -1.234376,0.609375 V 36 c 0.65625,-0.300782 1.226563,-0.671875 1.71875,-1.109375 0.488282,-0.445313 0.832032,-0.875 1.03125,-1.28125 h 0.765626 z m 2.992187,-2.5 1.234375,-0.109375 c 0.09375,0.605469 0.304688,1.058594 0.640625,1.359375 0.332031,0.304687 0.734375,0.453125 1.203125,0.453125 0.5625,0 1.035156,-0.210938 1.421875,-0.640625 0.394531,-0.425781 0.59375,-0.988281 0.59375,-1.6875 0,-0.664063 -0.1875,-1.191406 -0.5625,-1.578125 -0.375,-0.394531 -0.871094,-0.59375 -1.484375,-0.59375 -0.375,0 -0.714844,0.08984 -1.015625,0.265625 -0.304687,0.167969 -0.542969,0.390625 -0.71875,0.671875 l -1.09375,-0.15625 0.921875,-4.890625 h 4.75 v 1.109375 h -3.8125 l -0.515625,2.5625 c 0.570313,-0.394531 1.171875,-0.59375 1.796875,-0.59375 0.832031,0 1.535156,0.292969 2.109375,0.875 0.570313,0.574219 0.859375,1.3125 0.859375,2.21875 0,0.867187 -0.25,1.609375 -0.75,2.234375 -0.617188,0.773437 -1.449219,1.15625 -2.5,1.15625 -0.875,0 -1.589844,-0.238281 -2.140625,-0.71875 -0.542969,-0.488281 -0.855469,-1.132813 -0.9375,-1.9375 z m 0,0"
       style="fill:#262626;fill-opacity:1;fill-rule:nonzero;stroke:none;stroke-width:0.666667"
       aria-label="0.15" />
    <text
       id="text880"
       xml:space="preserve"
       transform="matrix(0,-0.99984433,1.0001557,0,0,0)"
       style="font-style:normal;font-variant:normal;font-weight:bold;font-stretch:normal;font-size:16.0025px;font-family:Verdana;-inkscape-font-specification:'Verdana Bold';stroke-width:1.33354"
       x="-338.80896"
       y="21.251715"><tspan
         id="tspan881"
         style="font-style:normal;font-variant:normal;font-weight:bold;font-stretch:normal;font-size:29.3499px;font-family:Verdana;-inkscape-font-specification:'Verdana Bold';writing-mode:lr-tb;fill:#262626;fill-opacity:1;fill-rule:nonzero;stroke:none;stroke-width:1.33354"
         x="-338.80896"
         dx="0 -3.1404357"
         y="21.251715">Torque</tspan></text>
    <path
       id="path41"
       d="m 87.281489,74.304815 c 0,-2.603495 -2.11055,-4.714045 -4.714045,-4.714045 -2.603495,0 -4.714045,2.11055 -4.714045,4.714045 0,2.603495 2.11055,4.714045 4.714045,4.714045 2.603495,0 4.714045,-2.11055 4.714045,-4.714045 z"
       style="fill:#ff0000;fill-opacity:1;fill-rule:nonzero;stroke:none;stroke-width:0.666667" />
    <path
       id="path42"
       d="m 157.42303,191.71253 c 0,-2.6035 -2.11055,-4.71405 -4.71405,-4.71405 -2.6035,0 -4.71405,2.11055 -4.71405,4.71405 0,2.6035 2.11055,4.71405 4.71405,4.71405 2.6035,0 4.71405,-2.11055 4.71405,-4.71405 z"
       style="fill:#ff2a2a;fill-opacity:1;fill-rule:nonzero;stroke:none;stroke-width:0.666667" />
    <path
       id="path43"
       d="m 157.42303,71.370239 c 0,-2.603495 -2.11055,-4.714045 -4.71405,-4.714045 -2.6035,0 -4.71405,2.11055 -4.71405,4.714045 0,2.603495 2.11055,4.714045 4.71405,4.714045 2.6035,0 4.71405,-2.11055 4.71405,-4.714045 z"
       style="fill:#ff2a2a;fill-opacity:1;fill-rule:nonzero;stroke:none;stroke-width:0.666667" />
    <path
       id="path44"
       d="m 157.42303,104.31809 c 0,-2.60349 -2.11055,-4.714045 -4.71405,-4.714045 -2.6035,0 -4.71405,2.110555 -4.71405,4.714045 0,2.60349 2.11055,4.71404 4.71405,4.71404 2.6035,0 4.71405,-2.11055 4.71405,-4.71404 z"
       style="fill:#ff2a2a;fill-opacity:1;fill-rule:nonzero;stroke:none;stroke-width:0.666667" />
    <path
       id="path45"
       d="m 192.49371,71.815877 c 0,-2.603495 -2.11055,-4.714045 -4.71405,-4.714045 -2.6035,0 -4.71405,2.11055 -4.71405,4.714045 0,2.603495 2.11055,4.714045 4.71405,4.714045 2.6035,0 4.71405,-2.11055 4.71405,-4.714045 z"
       style="fill:#ff2a2a;fill-opacity:1;fill-rule:nonzero;stroke:none;stroke-width:0.666667" />
    <path
       id="path46"
       d="m 192.49371,189.23922 c 0,-2.6035 -2.11055,-4.71405 -4.71405,-4.71405 -2.6035,0 -4.71405,2.11055 -4.71405,4.71405 0,2.6035 2.11055,4.71405 4.71405,4.71405 2.6035,0 4.71405,-2.11055 4.71405,-4.71405 z"
       style="fill:#ff2a2a;fill-opacity:1;fill-rule:nonzero;stroke:none;stroke-width:0.666667" />
    <path
       id="path47"
       d="m 215.87423,108.80862 c 0,-2.6035 -2.11055,-4.71405 -4.71405,-4.71405 -2.6035,0 -4.71405,2.11055 -4.71405,4.71405 0,2.60349 2.11055,4.71404 4.71405,4.71404 2.6035,0 4.71405,-2.11055 4.71405,-4.71404 z"
       style="fill:#ff2a2a;fill-opacity:1;fill-rule:nonzero;stroke:none;stroke-width:0.666667" />
    <path
       id="path48"
       d="m 215.87423,239.72699 c 0,-2.6035 -2.11055,-4.71405 -4.71405,-4.71405 -2.6035,0 -4.71405,2.11055 -4.71405,4.71405 0,2.6035 2.11055,4.71405 4.71405,4.71405 2.6035,0 4.71405,-2.11055 4.71405,-4.71405 z"
       style="fill:#ff2a2a;fill-opacity:1;fill-rule:nonzero;stroke:none;stroke-width:0.666667" />
    <path
       id="path49"
       d="m 227.56437,110.30719 c 0,-2.60349 -2.11055,-4.71404 -4.71405,-4.71404 -2.6035,0 -4.71405,2.11055 -4.71405,4.71404 0,2.6035 2.11055,4.71405 4.71405,4.71405 2.6035,0 4.71405,-2.11055 4.71405,-4.71405 z"
       style="fill:#ff2a2a;fill-opacity:1;fill-rule:nonzero;stroke:none;stroke-width:0.666667" />
    <path
       id="path50"
       d="m 250.94491,74.768707 c 0,-2.603495 -2.11055,-4.714045 -4.71405,-4.714045 -2.6035,0 -4.71405,2.11055 -4.71405,4.714045 0,2.603495 2.11055,4.714045 4.71405,4.714045 2.6035,0 4.71405,-2.11055 4.71405,-4.714045 z"
       style="fill:#ff2a2a;fill-opacity:1;fill-rule:nonzero;stroke:none;stroke-width:0.666667" />
    <path
       id="path51"
       d="m 286.01558,109.74164 c 0,-2.60349 -2.11055,-4.71404 -4.71405,-4.71404 -2.6035,0 -4.71405,2.11055 -4.71405,4.71404 0,2.6035 2.11055,4.71405 4.71405,4.71405 2.6035,0 4.71405,-2.11055 4.71405,-4.71405 z"
       style="fill:#ff2a2a;fill-opacity:1;fill-rule:nonzero;stroke:none;stroke-width:0.666667" />
    <path
       id="path52"
       d="m 286.01558,65.13356 c 0,-2.603495 -2.11055,-4.714045 -4.71405,-4.714045 -2.6035,0 -4.71405,2.11055 -4.71405,4.714045 0,2.603495 2.11055,4.714045 4.71405,4.714045 2.6035,0 4.71405,-2.11055 4.71405,-4.714045 z"
       style="fill:#ff2a2a;fill-opacity:1;fill-rule:nonzero;stroke:none;stroke-width:0.666667" />
    <path
       id="path53"
       d="m 286.01558,232.37741 c 0,-2.6035 -2.11055,-4.71405 -4.71405,-4.71405 -2.6035,0 -4.71405,2.11055 -4.71405,4.71405 0,2.6035 2.11055,4.71405 4.71405,4.71405 2.6035,0 4.71405,-2.11055 4.71405,-4.71405 z"
       style="fill:#ff2a2a;fill-opacity:1;fill-rule:nonzero;stroke:none;stroke-width:0.666667" />
    <path
       id="path54"
       d="m 286.01558,188.4834 c 0,-2.6035 -2.11055,-4.71405 -4.71405,-4.71405 -2.6035,0 -4.71405,2.11055 -4.71405,4.71405 0,2.6035 2.11055,4.71405 4.71405,4.71405 2.6035,0 4.71405,-2.11055 4.71405,-4.71405 z"
       style="fill:#ff2a2a;fill-opacity:1;fill-rule:nonzero;stroke:none;stroke-width:0.666667" />
    <path
       id="path55"
       d="m 297.70573,63.087646 c 0,-2.603495 -2.11055,-4.714045 -4.71405,-4.714045 -2.6035,0 -4.71405,2.11055 -4.71405,4.714045 0,2.603495 2.11055,4.714045 4.71405,4.714045 2.6035,0 4.71405,-2.11055 4.71405,-4.714045 z"
       style="fill:#ff2a2a;fill-opacity:1;fill-rule:nonzero;stroke:none;stroke-width:0.666667" />
    <path
       id="path56"
       d="m 309.39608,144.13332 c 0,-2.6035 -2.11055,-4.71405 -4.71405,-4.71405 -2.6035,0 -4.71405,2.11055 -4.71405,4.71405 0,2.6035 2.11055,4.71405 4.71405,4.71405 2.6035,0 4.71405,-2.11055 4.71405,-4.71405 z"
       style="fill:#ff2a2a;fill-opacity:1;fill-rule:nonzero;stroke:none;stroke-width:0.666667" />
    <path
       id="path57"
       d="m 309.39608,142.87975 c 0,-2.6035 -2.11055,-4.71405 -4.71405,-4.71405 -2.6035,0 -4.71405,2.11055 -4.71405,4.71405 0,2.6035 2.11055,4.71405 4.71405,4.71405 2.6035,0 4.71405,-2.11055 4.71405,-4.71405 z"
       style="fill:#ff2a2a;fill-opacity:1;fill-rule:nonzero;stroke:none;stroke-width:0.666667" />
    <path
       id="path58"
       d="m 356.1569,72.496134 c 0,-2.603495 -2.11055,-4.714045 -4.71405,-4.714045 -2.6035,0 -4.71405,2.11055 -4.71405,4.714045 0,2.603495 2.11055,4.714045 4.71405,4.714045 2.6035,0 4.71405,-2.11055 4.71405,-4.714045 z"
       style="fill:#ff2a2a;fill-opacity:1;fill-rule:nonzero;stroke:none;stroke-width:0.666667" />
    <path
       id="path59"
       d="m 356.1569,148.87929 c 0,-2.6035 -2.11055,-4.71405 -4.71405,-4.71405 -2.6035,0 -4.71405,2.11055 -4.71405,4.71405 0,2.6035 2.11055,4.71405 4.71405,4.71405 2.6035,0 4.71405,-2.11055 4.71405,-4.71405 z"
       style="fill:#ff2a2a;fill-opacity:1;fill-rule:nonzero;stroke:none;stroke-width:0.666667" />
    <path
       id="path60"
       d="m 367.84729,196.70602 c 0,-2.6035 -2.11055,-4.71405 -4.71405,-4.71405 -2.6035,0 -4.71405,2.11055 -4.71405,4.71405 0,2.6035 2.11055,4.71405 4.71405,4.71405 2.6035,0 4.71405,-2.11055 4.71405,-4.71405 z"
       style="fill:#ff2a2a;fill-opacity:1;fill-rule:nonzero;stroke:none;stroke-width:0.666667" />
    <path
       id="path61"
       d="m 367.84729,104.67251 c 0,-2.60349 -2.11055,-4.714044 -4.71405,-4.714044 -2.6035,0 -4.71405,2.110554 -4.71405,4.714044 0,2.6035 2.11055,4.71405 4.71405,4.71405 2.6035,0 4.71405,-2.11055 4.71405,-4.71405 z"
       style="fill:#ff2a2a;fill-opacity:1;fill-rule:nonzero;stroke:none;stroke-width:0.666667" />
    <path
       id="path62"
       d="m 379.53743,269.34671 c 0,-2.6035 -2.11055,-4.71405 -4.71405,-4.71405 -2.6035,0 -4.71405,2.11055 -4.71405,4.71405 0,2.6035 2.11055,4.71405 4.71405,4.71405 2.6035,0 4.71405,-2.11055 4.71405,-4.71405 z"
       style="fill:#ff2a2a;fill-opacity:1;fill-rule:nonzero;stroke:none;stroke-width:0.666667" />
    <path
       id="path63"
       d="m 391.22758,128.51164 c 0,-2.6035 -2.11055,-4.71405 -4.71405,-4.71405 -2.6035,0 -4.71405,2.11055 -4.71405,4.71405 0,2.6035 2.11055,4.71405 4.71405,4.71405 2.6035,0 4.71405,-2.11055 4.71405,-4.71405 z"
       style="fill:#ff2a2a;fill-opacity:1;fill-rule:nonzero;stroke:none;stroke-width:0.666667" />
    <path
       id="path64"
       d="m 402.91793,109.10828 c 0,-2.60349 -2.11055,-4.71404 -4.71405,-4.71404 -2.6035,0 -4.71405,2.11055 -4.71405,4.71404 0,2.6035 2.11055,4.71405 4.71405,4.71405 2.6035,0 4.71405,-2.11055 4.71405,-4.71405 z"
       style="fill:#ff2a2a;fill-opacity:1;fill-rule:nonzero;stroke:none;stroke-width:0.666667" />
    <path
       id="path65"
       d="m 414.60811,155.7962 c 0,-2.6035 -2.11055,-4.71405 -4.71405,-4.71405 -2.6035,0 -4.71405,2.11055 -4.71405,4.71405 0,2.6035 2.11055,4.71405 4.71405,4.71405 2.6035,0 4.71405,-2.11055 4.71405,-4.71405 z"
       style="fill:#ff2a2a;fill-opacity:1;fill-rule:nonzero;stroke:none;stroke-width:0.666667" />
    <path
       id="path66"
       d="m 426.29846,107.74524 c 0,-2.60349 -2.11055,-4.71404 -4.71405,-4.71404 -2.6035,0 -4.71405,2.11055 -4.71405,4.71404 0,2.6035 2.11055,4.71405 4.71405,4.71405 2.6035,0 4.71405,-2.11055 4.71405,-4.71405 z"
       style="fill:#ff2a2a;fill-opacity:1;fill-rule:nonzero;stroke:none;stroke-width:0.666667" />
    <path
       id="path67"
       d="m 437.98861,89.514735 c 0,-2.603495 -2.11055,-4.714045 -4.71405,-4.714045 -2.6035,0 -4.71405,2.11055 -4.71405,4.714045 0,2.603495 2.11055,4.714045 4.71405,4.714045 2.6035,0 4.71405,-2.11055 4.71405,-4.714045 z"
       style="fill:#ff2a2a;fill-opacity:1;fill-rule:nonzero;stroke:none;stroke-width:0.666667" />
    <path
       id="path68"
       d="m 449.67879,195.96589 c 0,-2.6035 -2.11055,-4.71405 -4.71405,-4.71405 -2.6035,0 -4.71405,2.11055 -4.71405,4.71405 0,2.6035 2.11055,4.71405 4.71405,4.71405 2.6035,0 4.71405,-2.11055 4.71405,-4.71405 z"
       style="fill:#ff2a2a;fill-opacity:1;fill-rule:nonzero;stroke:none;stroke-width:0.666667" />
    <path
       id="path69"
       d="m 449.67879,226.57858 c 0,-2.6035 -2.11055,-4.71405 -4.71405,-4.71405 -2.6035,0 -4.71405,2.11055 -4.71405,4.71405 0,2.6035 2.11055,4.71405 4.71405,4.71405 2.6035,0 4.71405,-2.11055 4.71405,-4.71405 z"
       style="fill:#ff2a2a;fill-opacity:1;fill-rule:nonzero;stroke:none;stroke-width:0.666667" />
    <path
       id="path70"
       d="m 461.36914,275.37226 c 0,-2.6035 -2.11055,-4.71405 -4.71405,-4.71405 -2.6035,0 -4.71405,2.11055 -4.71405,4.71405 0,2.6035 2.11055,4.71405 4.71405,4.71405 2.6035,0 4.71405,-2.11055 4.71405,-4.71405 z"
       style="fill:#ff2a2a;fill-opacity:1;fill-rule:nonzero;stroke:none;stroke-width:0.666667" />
    <path
       id="path71"
       d="m 461.36914,369.24575 c 0,-2.6035 -2.11055,-4.71405 -4.71405,-4.71405 -2.6035,0 -4.71405,2.11055 -4.71405,4.71405 0,2.6035 2.11055,4.71405 4.71405,4.71405 2.6035,0 4.71405,-2.11055 4.71405,-4.71405 z"
       style="fill:#ff2a2a;fill-opacity:1;fill-rule:nonzero;stroke:none;stroke-width:0.666667" />
    <path
       id="path72"
       d="m 461.36914,151.12845 c 0,-2.6035 -2.11055,-4.71405 -4.71405,-4.71405 -2.6035,0 -4.71405,2.11055 -4.71405,4.71405 0,2.6035 2.11055,4.71405 4.71405,4.71405 2.6035,0 4.71405,-2.11055 4.71405,-4.71405 z"
       style="fill:#ff2a2a;fill-opacity:1;fill-rule:nonzero;stroke:none;stroke-width:0.666667" />
    <path
       id="path73"
       d="m 461.36914,267.6448 c 0,-2.6035 -2.11055,-4.71405 -4.71405,-4.71405 -2.6035,0 -4.71405,2.11055 -4.71405,4.71405 0,2.6035 2.11055,4.71405 4.71405,4.71405 2.6035,0 4.71405,-2.11055 4.71405,-4.71405 z"
       style="fill:#ff2a2a;fill-opacity:1;fill-rule:nonzero;stroke:none;stroke-width:0.666667" />
    <path
       id="path74"
       d="m 461.36914,235.52835 c 0,-2.6035 -2.11055,-4.71405 -4.71405,-4.71405 -2.6035,0 -4.71405,2.11055 -4.71405,4.71405 0,2.6035 2.11055,4.71405 4.71405,4.71405 2.6035,0 4.71405,-2.11055 4.71405,-4.71405 z"
       style="fill:#ff2a2a;fill-opacity:1;fill-rule:nonzero;stroke:none;stroke-width:0.666667" />
    <path
       id="path75"
       d="m 484.74943,152.12926 c 0,-2.6035 -2.11055,-4.71405 -4.71405,-4.71405 -2.6035,0 -4.71405,2.11055 -4.71405,4.71405 0,2.6035 2.11055,4.71405 4.71405,4.71405 2.6035,0 4.71405,-2.11055 4.71405,-4.71405 z"
       style="fill:#ff2a2a;fill-opacity:1;fill-rule:nonzero;stroke:none;stroke-width:0.666667" />
    <path
       id="path76"
       d="m 484.74943,143.20289 c 0,-2.6035 -2.11055,-4.71405 -4.71405,-4.71405 -2.6035,0 -4.71405,2.11055 -4.71405,4.71405 0,2.6035 2.11055,4.71405 4.71405,4.71405 2.6035,0 4.71405,-2.11055 4.71405,-4.71405 z"
       style="fill:#ff2a2a;fill-opacity:1;fill-rule:nonzero;stroke:none;stroke-width:0.666667" />
    <path
       id="path77"
       d="m 496.43982,92.199153 c 0,-2.603495 -2.11055,-4.714045 -4.71405,-4.714045 -2.6035,0 -4.71405,2.11055 -4.71405,4.714045 0,2.603495 2.11055,4.714045 4.71405,4.714045 2.6035,0 4.71405,-2.11055 4.71405,-4.714045 z"
       style="fill:#ff2a2a;fill-opacity:1;fill-rule:nonzero;stroke:none;stroke-width:0.666667" />
    <path
       id="path78"
       d="m 496.43982,198.92133 c 0,-2.6035 -2.11055,-4.71405 -4.71405,-4.71405 -2.6035,0 -4.71405,2.11055 -4.71405,4.71405 0,2.6035 2.11055,4.71405 4.71405,4.71405 2.6035,0 4.71405,-2.11055 4.71405,-4.71405 z"
       style="fill:#ff2a2a;fill-opacity:1;fill-rule:nonzero;stroke:none;stroke-width:0.666667" />
    <path
       id="path79"
       d="m 496.43982,421.45885 c 0,-2.6035 -2.11055,-4.71405 -4.71405,-4.71405 -2.6035,0 -4.71405,2.11055 -4.71405,4.71405 0,2.6035 2.11055,4.71405 4.71405,4.71405 2.6035,0 4.71405,-2.11055 4.71405,-4.71405 z"
       style="fill:#ff2a2a;fill-opacity:1;fill-rule:nonzero;stroke:none;stroke-width:0.666667" />
    <path
       id="path80"
       d="m 496.43982,372.34459 c 0,-2.6035 -2.11055,-4.71405 -4.71405,-4.71405 -2.6035,0 -4.71405,2.11055 -4.71405,4.71405 0,2.6035 2.11055,4.71405 4.71405,4.71405 2.6035,0 4.71405,-2.11055 4.71405,-4.71405 z"
       style="fill:#ff2a2a;fill-opacity:1;fill-rule:nonzero;stroke:none;stroke-width:0.666667" />
    <path
       id="path81"
       d="m 496.43982,148.92093 c 0,-2.6035 -2.11055,-4.71405 -4.71405,-4.71405 -2.6035,0 -4.71405,2.11055 -4.71405,4.71405 0,2.6035 2.11055,4.71405 4.71405,4.71405 2.6035,0 4.71405,-2.11055 4.71405,-4.71405 z"
       style="fill:#ff2a2a;fill-opacity:1;fill-rule:nonzero;stroke:none;stroke-width:0.666667" />
    <path
       id="path82"
       d="m 496.43982,417.60944 c 0,-2.6035 -2.11055,-4.71405 -4.71405,-4.71405 -2.6035,0 -4.71405,2.11055 -4.71405,4.71405 0,2.6035 2.11055,4.71405 4.71405,4.71405 2.6035,0 4.71405,-2.11055 4.71405,-4.71405 z"
       style="fill:#ff2a2a;fill-opacity:1;fill-rule:nonzero;stroke:none;stroke-width:0.666667" />
    <path
       id="path83"
       d="m 508.12996,273.70687 c 0,-2.6035 -2.11055,-4.71405 -4.71405,-4.71405 -2.6035,0 -4.71405,2.11055 -4.71405,4.71405 0,2.6035 2.11055,4.71405 4.71405,4.71405 2.6035,0 4.71405,-2.11055 4.71405,-4.71405 z"
       style="fill:#ff2a2a;fill-opacity:1;fill-rule:nonzero;stroke:none;stroke-width:0.666667" />
    <path
       id="path84"
       d="m 508.12996,314.40046 c 0,-2.6035 -2.11055,-4.71405 -4.71405,-4.71405 -2.6035,0 -4.71405,2.11055 -4.71405,4.71405 0,2.6035 2.11055,4.71405 4.71405,4.71405 2.6035,0 4.71405,-2.11055 4.71405,-4.71405 z"
       style="fill:#ff2a2a;fill-opacity:1;fill-rule:nonzero;stroke:none;stroke-width:0.666667" />
    <path
       id="path85"
       d="m 519.82031,170.3702 c 0,-2.6035 -2.11055,-4.71405 -4.71405,-4.71405 -2.6035,0 -4.71405,2.11055 -4.71405,4.71405 0,2.6035 2.11055,4.71405 4.71405,4.71405 2.6035,0 4.71405,-2.11055 4.71405,-4.71405 z"
       style="fill:#ff2a2a;fill-opacity:1;fill-rule:nonzero;stroke:none;stroke-width:0.666667" />
    <path
       id="path86"
       d="m 519.82031,283.0137 c 0,-2.6035 -2.11055,-4.71405 -4.71405,-4.71405 -2.6035,0 -4.71405,2.11055 -4.71405,4.71405 0,2.6035 2.11055,4.71405 4.71405,4.71405 2.6035,0 4.71405,-2.11055 4.71405,-4.71405 z"
       style="fill:#ff2a2a;fill-opacity:1;fill-rule:nonzero;stroke:none;stroke-width:0.666667" />
    <path
       id="path87"
       d="m 519.82031,491.34988 c 0,-2.6035 -2.11055,-4.71405 -4.71405,-4.71405 -2.6035,0 -4.71405,2.11055 -4.71405,4.71405 0,2.6035 2.11055,4.71405 4.71405,4.71405 2.6035,0 4.71405,-2.11055 4.71405,-4.71405 z"
       style="fill:#ff2a2a;fill-opacity:1;fill-rule:nonzero;stroke:none;stroke-width:0.666667" />
    <path
       id="path88"
       d="m 519.82031,196.20046 c 0,-2.6035 -2.11055,-4.71405 -4.71405,-4.71405 -2.6035,0 -4.71405,2.11055 -4.71405,4.71405 0,2.6035 2.11055,4.71405 4.71405,4.71405 2.6035,0 4.71405,-2.11055 4.71405,-4.71405 z"
       style="fill:#ff2a2a;fill-opacity:1;fill-rule:nonzero;stroke:none;stroke-width:0.666667" />
    <path
       id="path89"
       d="m 531.5105,122.8431 c 0,-2.6035 -2.11055,-4.71404 -4.71405,-4.71404 -2.6035,0 -4.71405,2.11054 -4.71405,4.71404 0,2.6035 2.11055,4.71405 4.71405,4.71405 2.6035,0 4.71405,-2.11055 4.71405,-4.71405 z"
       style="fill:#ff2a2a;fill-opacity:1;fill-rule:nonzero;stroke:none;stroke-width:0.666667" />
    <path
       id="path90"
       d="m 531.5105,319.20893 c 0,-2.6035 -2.11055,-4.71405 -4.71405,-4.71405 -2.6035,0 -4.71405,2.11055 -4.71405,4.71405 0,2.6035 2.11055,4.71405 4.71405,4.71405 2.6035,0 4.71405,-2.11055 4.71405,-4.71405 z"
       style="fill:#ff2a2a;fill-opacity:1;fill-rule:nonzero;stroke:none;stroke-width:0.666667" />
    <path
       id="path91"
       d="m 531.5105,493.6929 c 0,-2.6035 -2.11055,-4.71405 -4.71405,-4.71405 -2.6035,0 -4.71405,2.11055 -4.71405,4.71405 0,2.6035 2.11055,4.71405 4.71405,4.71405 2.6035,0 4.71405,-2.11055 4.71405,-4.71405 z"
       style="fill:#ff2a2a;fill-opacity:1;fill-rule:nonzero;stroke:none;stroke-width:0.666667" />
    <path
       id="path92"
       d="m 531.5105,317.79635 c 0,-2.6035 -2.11055,-4.71405 -4.71405,-4.71405 -2.6035,0 -4.71405,2.11055 -4.71405,4.71405 0,2.6035 2.11055,4.71405 4.71405,4.71405 2.6035,0 4.71405,-2.11055 4.71405,-4.71405 z"
       style="fill:#ff2a2a;fill-opacity:1;fill-rule:nonzero;stroke:none;stroke-width:0.666667" />
    <path
       id="path93"
       d="m 531.5105,108.32123 c 0,-2.60349 -2.11055,-4.71404 -4.71405,-4.71404 -2.6035,0 -4.71405,2.11055 -4.71405,4.71404 0,2.6035 2.11055,4.71405 4.71405,4.71405 2.6035,0 4.71405,-2.11055 4.71405,-4.71405 z"
       style="fill:#ff2a2a;fill-opacity:1;fill-rule:nonzero;stroke:none;stroke-width:0.666667" />
    <path
       id="path94"
       d="m 543.20064,368.89395 c 0,-2.6035 -2.11055,-4.71405 -4.71405,-4.71405 -2.6035,0 -4.71405,2.11055 -4.71405,4.71405 0,2.6035 2.11055,4.71405 4.71405,4.71405 2.6035,0 4.71405,-2.11055 4.71405,-4.71405 z"
       style="fill:#ff2a2a;fill-opacity:1;fill-rule:nonzero;stroke:none;stroke-width:0.666667" />
    <path
       id="path95"
       d="m 543.20064,492.04576 c 0,-2.6035 -2.11055,-4.71405 -4.71405,-4.71405 -2.6035,0 -4.71405,2.11055 -4.71405,4.71405 0,2.6035 2.11055,4.71405 4.71405,4.71405 2.6035,0 4.71405,-2.11055 4.71405,-4.71405 z"
       style="fill:#ff2a2a;fill-opacity:1;fill-rule:nonzero;stroke:none;stroke-width:0.666667" />
    <path
       id="path96"
       d="m 543.20064,421.07571 c 0,-2.6035 -2.11055,-4.71405 -4.71405,-4.71405 -2.6035,0 -4.71405,2.11055 -4.71405,4.71405 0,2.6035 2.11055,4.71405 4.71405,4.71405 2.6035,0 4.71405,-2.11055 4.71405,-4.71405 z"
       style="fill:#ff2a2a;fill-opacity:1;fill-rule:nonzero;stroke:none;stroke-width:0.666667" />
    <path
       id="path97"
       d="m 543.20064,364.86209 c 0,-2.6035 -2.11055,-4.71405 -4.71405,-4.71405 -2.6035,0 -4.71405,2.11055 -4.71405,4.71405 0,2.6035 2.11055,4.71405 4.71405,4.71405 2.6035,0 4.71405,-2.11055 4.71405,-4.71405 z"
       style="fill:#ff2a2a;fill-opacity:1;fill-rule:nonzero;stroke:none;stroke-width:0.666667" />
    <path
       id="path98"
       d="m 554.89099,253.74581 c 0,-2.6035 -2.11055,-4.71405 -4.71405,-4.71405 -2.6035,0 -4.71405,2.11055 -4.71405,4.71405 0,2.6035 2.11055,4.71405 4.71405,4.71405 2.6035,0 4.71405,-2.11055 4.71405,-4.71405 z"
       style="fill:#ff2a2a;fill-opacity:1;fill-rule:nonzero;stroke:none;stroke-width:0.666667" />
    <path
       id="path99"
       d="m 554.89099,373.45221 c 0,-2.6035 -2.11055,-4.71405 -4.71405,-4.71405 -2.6035,0 -4.71405,2.11055 -4.71405,4.71405 0,2.6035 2.11055,4.71405 4.71405,4.71405 2.6035,0 4.71405,-2.11055 4.71405,-4.71405 z"
       style="fill:#ff2a2a;fill-opacity:1;fill-rule:nonzero;stroke:none;stroke-width:0.666667" />
    <path
       id="path100"
       d="m 554.89099,370.37429 c 0,-2.6035 -2.11055,-4.71405 -4.71405,-4.71405 -2.6035,0 -4.71405,2.11055 -4.71405,4.71405 0,2.6035 2.11055,4.71405 4.71405,4.71405 2.6035,0 4.71405,-2.11055 4.71405,-4.71405 z"
       style="fill:#ff2a2a;fill-opacity:1;fill-rule:nonzero;stroke:none;stroke-width:0.666667" />
    <path
       id="path101"
       d="m 554.89099,319.40699 c 0,-2.6035 -2.11055,-4.71405 -4.71405,-4.71405 -2.6035,0 -4.71405,2.11055 -4.71405,4.71405 0,2.6035 2.11055,4.71405 4.71405,4.71405 2.6035,0 4.71405,-2.11055 4.71405,-4.71405 z"
       style="fill:#ff2a2a;fill-opacity:1;fill-rule:nonzero;stroke:none;stroke-width:0.666667" />
    <path
       id="path102"
       d="m 554.89099,181.84015 c 0,-2.6035 -2.11055,-4.71405 -4.71405,-4.71405 -2.6035,0 -4.71405,2.11055 -4.71405,4.71405 0,2.6035 2.11055,4.71405 4.71405,4.71405 2.6035,0 4.71405,-2.11055 4.71405,-4.71405 z"
       style="fill:#ff2a2a;fill-opacity:1;fill-rule:nonzero;stroke:none;stroke-width:0.666667" />
    <path
       id="path103"
       d="m 554.89099,270.87653 c 0,-2.6035 -2.11055,-4.71405 -4.71405,-4.71405 -2.6035,0 -4.71405,2.11055 -4.71405,4.71405 0,2.6035 2.11055,4.71405 4.71405,4.71405 2.6035,0 4.71405,-2.11055 4.71405,-4.71405 z"
       style="fill:#ff2a2a;fill-opacity:1;fill-rule:nonzero;stroke:none;stroke-width:0.666667" />
    <path
       id="path104"
       d="m 554.89099,416.16299 c 0,-2.6035 -2.11055,-4.71405 -4.71405,-4.71405 -2.6035,0 -4.71405,2.11055 -4.71405,4.71405 0,2.6035 2.11055,4.71405 4.71405,4.71405 2.6035,0 4.71405,-2.11055 4.71405,-4.71405 z"
       style="fill:#ff2a2a;fill-opacity:1;fill-rule:nonzero;stroke:none;stroke-width:0.666667" />
    <path
       id="path105"
       d="m 554.89099,365.92804 c 0,-2.6035 -2.11055,-4.71405 -4.71405,-4.71405 -2.6035,0 -4.71405,2.11055 -4.71405,4.71405 0,2.6035 2.11055,4.71405 4.71405,4.71405 2.6035,0 4.71405,-2.11055 4.71405,-4.71405 z"
       style="fill:#ff2a2a;fill-opacity:1;fill-rule:nonzero;stroke:none;stroke-width:0.666667" />
    <path
       id="path106"
       d="m 554.89099,266.27395 c 0,-2.6035 -2.11055,-4.71405 -4.71405,-4.71405 -2.6035,0 -4.71405,2.11055 -4.71405,4.71405 0,2.6035 2.11055,4.71405 4.71405,4.71405 2.6035,0 4.71405,-2.11055 4.71405,-4.71405 z"
       style="fill:#ff2a2a;fill-opacity:1;fill-rule:nonzero;stroke:none;stroke-width:0.666667" />
    <path
       id="path107"
       d="m 566.58114,427.11172 c 0,-2.6035 -2.11055,-4.71405 -4.71405,-4.71405 -2.6035,0 -4.71405,2.11055 -4.71405,4.71405 0,2.6035 2.11055,4.71405 4.71405,4.71405 2.6035,0 4.71405,-2.11055 4.71405,-4.71405 z"
       style="fill:#ff2a2a;fill-opacity:1;fill-rule:nonzero;stroke:none;stroke-width:0.666667" />
    <path
       id="path108"
       d="m 566.58114,242.94562 c 0,-2.6035 -2.11055,-4.71405 -4.71405,-4.71405 -2.6035,0 -4.71405,2.11055 -4.71405,4.71405 0,2.6035 2.11055,4.71405 4.71405,4.71405 2.6035,0 4.71405,-2.11055 4.71405,-4.71405 z"
       style="fill:#ff2a2a;fill-opacity:1;fill-rule:nonzero;stroke:none;stroke-width:0.666667" />
    <path
       id="path109"
       d="m 566.58114,418.71967 c 0,-2.6035 -2.11055,-4.71405 -4.71405,-4.71405 -2.6035,0 -4.71405,2.11055 -4.71405,4.71405 0,2.6035 2.11055,4.71405 4.71405,4.71405 2.6035,0 4.71405,-2.11055 4.71405,-4.71405 z"
       style="fill:#ff2a2a;fill-opacity:1;fill-rule:nonzero;stroke:none;stroke-width:0.666667" />
    <path
       id="path110"
       d="m 566.58114,316.66785 c 0,-2.6035 -2.11055,-4.71405 -4.71405,-4.71405 -2.6035,0 -4.71405,2.11055 -4.71405,4.71405 0,2.6035 2.11055,4.71405 4.71405,4.71405 2.6035,0 4.71405,-2.11055 4.71405,-4.71405 z"
       style="fill:#ff2a2a;fill-opacity:1;fill-rule:nonzero;stroke:none;stroke-width:0.666667" />
    <path
       id="path111"
       d="m 566.58114,491.10753 c 0,-2.6035 -2.11055,-4.71405 -4.71405,-4.71405 -2.6035,0 -4.71405,2.11055 -4.71405,4.71405 0,2.6035 2.11055,4.71405 4.71405,4.71405 2.6035,0 4.71405,-2.11055 4.71405,-4.71405 z"
       style="fill:#ff2a2a;fill-opacity:1;fill-rule:nonzero;stroke:none;stroke-width:0.666667" />
    <path
       id="path112"
       d="m 566.58114,489.87739 c 0,-2.6035 -2.11055,-4.71405 -4.71405,-4.71405 -2.6035,0 -4.71405,2.11055 -4.71405,4.71405 0,2.6035 2.11055,4.71405 4.71405,4.71405 2.6035,0 4.71405,-2.11055 4.71405,-4.71405 z"
       style="fill:#ff2a2a;fill-opacity:1;fill-rule:nonzero;stroke:none;stroke-width:0.666667" />
    <path
       id="path113"
       d="m 578.27148,238.44469 c 0,-2.6035 -2.11055,-4.71405 -4.71405,-4.71405 -2.6035,0 -4.71405,2.11055 -4.71405,4.71405 0,2.6035 2.11055,4.71405 4.71405,4.71405 2.6035,0 4.71405,-2.11055 4.71405,-4.71405 z"
       style="fill:#ff2a2a;fill-opacity:1;fill-rule:nonzero;stroke:none;stroke-width:0.666667" />
    <path
       id="path114"
       d="m 578.27148,418.44082 c 0,-2.6035 -2.11055,-4.71405 -4.71405,-4.71405 -2.6035,0 -4.71405,2.11055 -4.71405,4.71405 0,2.6035 2.11055,4.71405 4.71405,4.71405 2.6035,0 4.71405,-2.11055 4.71405,-4.71405 z"
       style="fill:#ff2a2a;fill-opacity:1;fill-rule:nonzero;stroke:none;stroke-width:0.666667" />
    <path
       id="path115"
       d="m 578.27148,236.29716 c 0,-2.6035 -2.11055,-4.71405 -4.71405,-4.71405 -2.6035,0 -4.71405,2.11055 -4.71405,4.71405 0,2.6035 2.11055,4.71405 4.71405,4.71405 2.6035,0 4.71405,-2.11055 4.71405,-4.71405 z"
       style="fill:#ff2a2a;fill-opacity:1;fill-rule:nonzero;stroke:none;stroke-width:0.666667" />
    <path
       id="path116"
       d="m 589.96167,282.89641 c 0,-2.6035 -2.11055,-4.71405 -4.71405,-4.71405 -2.6035,0 -4.71405,2.11055 -4.71405,4.71405 0,2.6035 2.11055,4.71405 4.71405,4.71405 2.6035,0 4.71405,-2.11055 4.71405,-4.71405 z"
       style="fill:#ff2a2a;fill-opacity:1;fill-rule:nonzero;stroke:none;stroke-width:0.666667" />
    <path
       id="path117"
       d="m 589.96167,326.41513 c 0,-2.6035 -2.11055,-4.71405 -4.71405,-4.71405 -2.6035,0 -4.71405,2.11055 -4.71405,4.71405 0,2.6035 2.11055,4.71405 4.71405,4.71405 2.6035,0 4.71405,-2.11055 4.71405,-4.71405 z"
       style="fill:#ff2a2a;fill-opacity:1;fill-rule:nonzero;stroke:none;stroke-width:0.666667" />
    <path
       id="path118"
       d="m 589.96167,275.15072 c 0,-2.6035 -2.11055,-4.71405 -4.71405,-4.71405 -2.6035,0 -4.71405,2.11055 -4.71405,4.71405 0,2.6035 2.11055,4.71405 4.71405,4.71405 2.6035,0 4.71405,-2.11055 4.71405,-4.71405 z"
       style="fill:#ff2a2a;fill-opacity:1;fill-rule:nonzero;stroke:none;stroke-width:0.666667" />
    <path
       id="path119"
       d="m 601.65186,374.22105 c 0,-2.6035 -2.11055,-4.71405 -4.71405,-4.71405 -2.6035,0 -4.71405,2.11055 -4.71405,4.71405 0,2.6035 2.11055,4.71405 4.71405,4.71405 2.6035,0 4.71405,-2.11055 4.71405,-4.71405 z"
       style="fill:#ff2a2a;fill-opacity:1;fill-rule:nonzero;stroke:none;stroke-width:0.666667" />
    <path
       id="path120"
       d="m 601.65186,424.87299 c 0,-2.6035 -2.11055,-4.71405 -4.71405,-4.71405 -2.6035,0 -4.71405,2.11055 -4.71405,4.71405 0,2.6035 2.11055,4.71405 4.71405,4.71405 2.6035,0 4.71405,-2.11055 4.71405,-4.71405 z"
       style="fill:#ff2a2a;fill-opacity:1;fill-rule:nonzero;stroke:none;stroke-width:0.666667" />
    <path
       id="path121"
       d="m 601.65186,489.53335 c 0,-2.6035 -2.11055,-4.71405 -4.71405,-4.71405 -2.6035,0 -4.71405,2.11055 -4.71405,4.71405 0,2.6035 2.11055,4.71405 4.71405,4.71405 2.6035,0 4.71405,-2.11055 4.71405,-4.71405 z"
       style="fill:#ff2a2a;fill-opacity:1;fill-rule:nonzero;stroke:none;stroke-width:0.666667" />
    <path
       id="path122"
       d="m 601.65186,313.32406 c 0,-2.6035 -2.11055,-4.71405 -4.71405,-4.71405 -2.6035,0 -4.71405,2.11055 -4.71405,4.71405 0,2.6035 2.11055,4.71405 4.71405,4.71405 2.6035,0 4.71405,-2.11055 4.71405,-4.71405 z"
       style="fill:#ff2a2a;fill-opacity:1;fill-rule:nonzero;stroke:none;stroke-width:0.666667" />
    <path
       id="path123"
       d="m 613.3422,210.2193 c 0,-2.6035 -2.11055,-4.71405 -4.71405,-4.71405 -2.6035,0 -4.71405,2.11055 -4.71405,4.71405 0,2.6035 2.11055,4.71405 4.71405,4.71405 2.6035,0 4.71405,-2.11055 4.71405,-4.71405 z"
       style="fill:#ff2a2a;fill-opacity:1;fill-rule:nonzero;stroke:none;stroke-width:0.666667" />
    <path
       id="path124"
       d="m 613.3422,164.24815 c 0,-2.6035 -2.11055,-4.71405 -4.71405,-4.71405 -2.6035,0 -4.71405,2.11055 -4.71405,4.71405 0,2.6035 2.11055,4.71405 4.71405,4.71405 2.6035,0 4.71405,-2.11055 4.71405,-4.71405 z"
       style="fill:#ff2a2a;fill-opacity:1;fill-rule:nonzero;stroke:none;stroke-width:0.666667" />
    <path
       id="path125"
       d="m 613.3422,320.18364 c 0,-2.6035 -2.11055,-4.71405 -4.71405,-4.71405 -2.6035,0 -4.71405,2.11055 -4.71405,4.71405 0,2.6035 2.11055,4.71405 4.71405,4.71405 2.6035,0 4.71405,-2.11055 4.71405,-4.71405 z"
       style="fill:#ff2a2a;fill-opacity:1;fill-rule:nonzero;stroke:none;stroke-width:0.666667" />
    <path
       id="path126"
       d="m 613.3422,293.78524 c 0,-2.6035 -2.11055,-4.71405 -4.71405,-4.71405 -2.6035,0 -4.71405,2.11055 -4.71405,4.71405 0,2.6035 2.11055,4.71405 4.71405,4.71405 2.6035,0 4.71405,-2.11055 4.71405,-4.71405 z"
       style="fill:#ff2a2a;fill-opacity:1;fill-rule:nonzero;stroke:none;stroke-width:0.666667" />
    <path
       id="path127"
       d="m 613.3422,235.90884 c 0,-2.6035 -2.11055,-4.71405 -4.71405,-4.71405 -2.6035,0 -4.71405,2.11055 -4.71405,4.71405 0,2.6035 2.11055,4.71405 4.71405,4.71405 2.6035,0 4.71405,-2.11055 4.71405,-4.71405 z"
       style="fill:#ff2a2a;fill-opacity:1;fill-rule:nonzero;stroke:none;stroke-width:0.666667" />
    <path
       id="path128"
       d="m 625.03231,328.88583 c 0,-2.6035 -2.11055,-4.71405 -4.71405,-4.71405 -2.6035,0 -4.71405,2.11055 -4.71405,4.71405 0,2.6035 2.11055,4.71405 4.71405,4.71405 2.6035,0 4.71405,-2.11055 4.71405,-4.71405 z"
       style="fill:#ff2a2a;fill-opacity:1;fill-rule:nonzero;stroke:none;stroke-width:0.666667" />
    <path
       id="path129"
       d="m 636.72274,375.8395 c 0,-2.6035 -2.11055,-4.71405 -4.71405,-4.71405 -2.6035,0 -4.71405,2.11055 -4.71405,4.71405 0,2.6035 2.11055,4.71405 4.71405,4.71405 2.6035,0 4.71405,-2.11055 4.71405,-4.71405 z"
       style="fill:#ff2a2a;fill-opacity:1;fill-rule:nonzero;stroke:none;stroke-width:0.666667" />
    <path
       id="path130"
       d="m 660.10303,492.08486 c 0,-2.6035 -2.11055,-4.71405 -4.71405,-4.71405 -2.6035,0 -4.71405,2.11055 -4.71405,4.71405 0,2.6035 2.11055,4.71405 4.71405,4.71405 2.6035,0 4.71405,-2.11055 4.71405,-4.71405 z"
       style="fill:#ff2a2a;fill-opacity:1;fill-rule:nonzero;stroke:none;stroke-width:0.666667" />
    <path
       id="path131"
       d="m 706.86401,211.21227 c 0,-2.6035 -2.11055,-4.71405 -4.71405,-4.71405 -2.6035,0 -4.71405,2.11055 -4.71405,4.71405 0,2.6035 2.11055,4.71405 4.71405,4.71405 2.6035,0 4.71405,-2.11055 4.71405,-4.71405 z"
       style="fill:#ff2a2a;fill-opacity:1;fill-rule:nonzero;stroke:none;stroke-width:0.666667" />
    <path
       id="path132"
       d="m 718.5542,254.69448 c 0,-2.6035 -2.11055,-4.71405 -4.71405,-4.71405 -2.6035,0 -4.71405,2.11055 -4.71405,4.71405 0,2.6035 2.11055,4.71405 4.71405,4.71405 2.6035,0 4.71405,-2.11055 4.71405,-4.71405 z"
       style="fill:#ff2a2a;fill-opacity:1;fill-rule:nonzero;stroke:none;stroke-width:0.666667" />
    <path
       id="path133"
       d="m 718.5542,265.07245 c 0,-2.6035 -2.11055,-4.71405 -4.71405,-4.71405 -2.6035,0 -4.71405,2.11055 -4.71405,4.71405 0,2.6035 2.11055,4.71405 4.71405,4.71405 2.6035,0 4.71405,-2.11055 4.71405,-4.71405 z"
       style="fill:#ff2a2a;fill-opacity:1;fill-rule:nonzero;stroke:none;stroke-width:0.666667" />
    <path
       id="path134"
       d="m 730.24455,496.81773 c 0,-2.6035 -2.11055,-4.71405 -4.71405,-4.71405 -2.6035,0 -4.71405,2.11055 -4.71405,4.71405 0,2.6035 2.11055,4.71405 4.71405,4.71405 2.6035,0 4.71405,-2.11055 4.71405,-4.71405 z"
       style="fill:#ff2a2a;fill-opacity:1;fill-rule:nonzero;stroke:none;stroke-width:0.666667" />
    <path
       id="path135"
       d="m 741.93473,332.79255 c 0,-2.6035 -2.11055,-4.71405 -4.71405,-4.71405 -2.6035,0 -4.71405,2.11055 -4.71405,4.71405 0,2.6035 2.11055,4.71405 4.71405,4.71405 2.6035,0 4.71405,-2.11055 4.71405,-4.71405 z"
       style="fill:#ff2a2a;fill-opacity:1;fill-rule:nonzero;stroke:none;stroke-width:0.666667" />
    <path
       id="path136"
       d="m 812.07609,435.51158 c 0,-2.6035 -2.11055,-4.71405 -4.71405,-4.71405 -2.6035,0 -4.71405,2.11055 -4.71405,4.71405 0,2.6035 2.11055,4.71405 4.71405,4.71405 2.6035,0 4.71405,-2.11055 4.71405,-4.71405 z"
       style="fill:#ff2a2a;fill-opacity:1;fill-rule:nonzero;stroke:none;stroke-width:0.666667" />
    <path
       id="path137"
       d="m 835.45654,498.85842 c 0,-2.6035 -2.11055,-4.71405 -4.71405,-4.71405 -2.6035,0 -4.71405,2.11055 -4.71405,4.71405 0,2.6035 2.11055,4.71405 4.71405,4.71405 2.6035,0 4.71405,-2.11055 4.71405,-4.71405 z"
       style="fill:#ff2a2a;fill-opacity:1;fill-rule:nonzero;stroke:none;stroke-width:0.666667" />
    <path
       id="path138"
       d="m 882.21761,456.97643 c 0,-2.6035 -2.11055,-4.71405 -4.71405,-4.71405 -2.6035,0 -4.71405,2.11055 -4.71405,4.71405 0,2.6035 2.11055,4.71405 4.71405,4.71405 2.6035,0 4.71405,-2.11055 4.71405,-4.71405 z"
       style="fill:#ff2a2a;fill-opacity:1;fill-rule:nonzero;stroke:none;stroke-width:0.666667" />
    <path
       id="path139"
       d="m 882.21761,382.65217 c 0,-2.6035 -2.11055,-4.71405 -4.71405,-4.71405 -2.6035,0 -4.71405,2.11055 -4.71405,4.71405 0,2.6035 2.11055,4.71405 4.71405,4.71405 2.6035,0 4.71405,-2.11055 4.71405,-4.71405 z"
       style="fill:#ff2a2a;fill-opacity:1;fill-rule:nonzero;stroke:none;stroke-width:0.666667" />
    <text
       id="text881"
       xml:space="preserve"
       transform="scale(1.0001556,0.99984442)"
       style="font-style:normal;font-variant:normal;font-weight:bold;font-stretch:normal;font-size:15.9975px;font-family:Verdana;-inkscape-font-specification:'Verdana Bold';stroke-width:1.33313"
       x="260.10886"
       y="32.79285"><tspan
         id="tspan882"
         style="font-style:normal;font-variant:normal;font-weight:bold;font-stretch:normal;font-size:42.6908px;font-family:Verdana;-inkscape-font-specification:'Verdana Bold';writing-mode:lr-tb;fill:#000000;fill-opacity:1;fill-rule:nonzero;stroke:none;stroke-width:1.33313"
         x="260.10886"
         y="32.79285">Optimal  for Torque</tspan></text>
    <text
       id="text873"
       xml:space="preserve"
       transform="scale(1.0001556,0.99984442)"
       style="font-style:normal;font-variant:normal;font-weight:bold;font-stretch:normal;font-size:15.9975px;font-family:Verdana;-inkscape-font-specification:'Verdana Bold';stroke-width:1.33313"
       x="534.36743"
       y="564.02661"><tspan
         id="tspan873"
         style="font-style:normal;font-variant:normal;font-weight:bold;font-stretch:normal;font-size:29.3498px;font-family:Verdana;-inkscape-font-specification:'Verdana Bold';writing-mode:lr-tb;fill:#262626;fill-opacity:1;fill-rule:nonzero;stroke:none;stroke-width:1.33313"
         x="534.36743"
         y="564.02661"></tspan></text>
  </g>
</svg>
